<svg xmlns="http://www.w3.org/2000/svg" xmlns:xlink="http://www.w3.org/1999/xlink" viewBox="0 0 94 94" enable-background="new 0 0 94 94"><defs><circle id="SVGID_1_" cx="47" cy="47" r="46"/></defs><clipPath id="SVGID_2_"><use xlink:href="#SVGID_1_" overflow="visible"/></clipPath><path clip-path="url(#SVGID_2_)" fill="#0EAF81" d="M29.4 102.6c-3.3 0-5-5-5.7-7.7-1.3-.4-2.6-.9-3.7-1.5-2.4 1.4-7.1 3.6-9.4 1.3l-.9-.9c-2.7-2.7 0-7.3 1.3-9.3-.6-1.2-1.1-2.4-1.5-3.7-2.7-.6-7.7-2.2-7.7-5.5l.1-1.7c0-3.7 5.1-5 7.5-5.5.4-1.3.9-2.6 1.6-3.8-1.3-2.3-3.5-7-1.3-9.3l.9-.9c2.6-2.6 7-.2 9.2 1.3 1.2-.7 2.5-1.2 3.9-1.6.6-2.7 2.2-7.5 5.4-7.5h1.8c3.6 0 5 4.8 5.5 7.5 1.3.4 2.6.9 3.8 1.6 1.7-1.1 6.5-4 9.3-1.2l.9.9c2.2 2.2.1 6.9-1.2 9.2.6 1.2 1.2 2.5 1.6 3.8 1.9.3 7.4 1.6 7.4 5.5v1.9c0 3.2-4.8 4.7-7.4 5.3-.4 1.3-.8 2.5-1.5 3.8 1.1 1.6 4 6.5 1.2 9.3l-.9.9c-2.3 2.3-7 .1-9.4-1.3-1.2.7-2.3 1.2-3.7 1.6-.3 1.9-1.7 7.4-5.6 7.4l-1.5.1zM20 91.3c.2 0 .3 0 .5.1 1.4.8 2.8 1.4 4.4 1.8.3.1.6.4.7.7.7 3.3 2.3 6.7 3.8 6.7l1.5-.1c2.5 0 3.7-4.7 3.9-6.4 0-.4.3-.7.7-.8 1.6-.4 2.8-1 4.3-1.9.3-.2.7-.2 1 0 2.9 1.8 6.4 3 7.5 1.9l.9-.9c1.7-1.7-.8-5.9-1.8-7.2-.2-.3-.3-.8-.1-1.1.9-1.5 1.3-2.8 1.7-4.4.1-.4.4-.6.8-.7 3.1-.6 6.5-2 6.5-3.5v-1.9c0-2.4-4.7-3.5-6.3-3.7-.4 0-.7-.3-.8-.7-.4-1.6-1-3.1-1.8-4.5-.2-.3-.2-.7 0-1 1.6-2.8 2.9-6.2 1.8-7.3l-.9-.9c-2.1-2.1-7.2 1.7-7.2 1.8-.3.2-.7.3-1.1.1-1.4-.8-2.9-1.4-4.5-1.8-.4-.1-.7-.4-.7-.8-.4-3-1.7-6.4-3.7-6.4h-1.8c-1.5 0-2.9 3.4-3.6 6.6-.1.4-.3.6-.7.7-1.6.4-3.1 1.1-4.5 1.9-.3.2-.7.2-1.1-.1-2.4-1.7-5.8-3.3-7.2-1.8l-.9.9c-1.1 1.1.2 4.6 1.8 7.4.2.3.2.7 0 1-.8 1.4-1.4 2.9-1.8 4.5-.1.4-.4.7-.8.7-2.4.4-6.5 1.5-6.5 3.7l-.1 1.7c0 1.4 3.4 2.9 6.7 3.6.4.1.6.3.7.7.4 1.6 1.1 3 1.8 4.4.2.3.2.7-.1 1.1-1.4 2-3.5 5.8-1.9 7.3l.9.9c1.1 1.1 4.6-.1 7.5-1.9.1-.4.3-.4.5-.4zm2.9-8.7c-.3 0-.5-.1-.7-.3-4.4-4.4-4.4-11.4 0-15.8 4.3-4.3 11.4-4.4 15.8 0 .4.4.4 1 0 1.4-.4.4-1 .4-1.4 0-3.6-3.6-9.4-3.6-13 0-3.6 3.6-3.6 9.4 0 13 .4.4.4 1 0 1.4-.2.2-.5.3-.7.3zm7.2-2.1c-1.6 0-3.1-.6-4.3-1.8-1.2-1.1-1.8-2.7-1.8-4.3s.6-3.1 1.8-4.3c2.4-2.4 6.2-2.4 8.6 0 2.4 2.4 2.4 6.2 0 8.6-1.2 1.1-2.7 1.8-4.3 1.8zm-2.9-9c-.8.8-1.2 1.8-1.2 2.9s.4 2.1 1.2 2.9c.8.8 1.8 1.2 2.9 1.2 1.1 0 2.1-.4 2.9-1.2 1.6-1.6 1.6-4.2 0-5.8-1.6-1.6-4.2-1.6-5.8 0zM55.2 57.6c-2.8 0-4.2-4-4.7-6.2-1-.3-1.9-.7-2.8-1.2-2 1.1-5.8 2.9-7.7 1l-.8-.8c-2.2-2.2-.1-6 1-7.7-.5-.8-.9-1.7-1.2-2.7-2.3-.5-6.3-1.9-6.3-4.6l.1-1.4c0-3 4.1-4.2 6.1-4.6.3-1 .7-2 1.2-2.9-1.1-2-2.8-5.7-.9-7.6l.8-.8c2.1-2.1 5.7-.3 7.6.9.9-.5 1.9-.9 2.9-1.2.5-2.2 1.8-6.1 4.5-6.1h1.4c3 0 4.2 3.8 4.6 6.1 1 .3 1.9.7 2.9 1.2 1.4-1 5.3-3.2 7.6-.9l.8.8c1.8 1.8.3 5.3-.9 7.6.5.9.9 1.9 1.2 2.9 1.7.3 6 1.4 6 4.6v1.5c0 2.7-3.8 3.9-6 4.4-.3 1-.6 1.9-1.1 2.9 1 1.5 3.2 5.3.9 7.6l-.8.8c-1.9 1.9-5.7.2-7.7-1-.9.5-1.8.9-2.8 1.2-.3 1.7-1.4 6-4.7 6l-1.2.2zm-7.6-9.4c.2 0 .3 0 .5.1 1.1.6 2.2 1.1 3.5 1.4.3.1.6.4.7.7.6 2.5 1.8 5.3 2.9 5.3l1.2-.1c1.9 0 2.8-3.7 2.9-5 0-.4.3-.7.7-.8 1.3-.3 2.2-.8 3.4-1.5.3-.2.7-.2 1 0 2.2 1.3 5 2.3 5.8 1.6l.8-.8c1.3-1.3-.7-4.5-1.4-5.6-.2-.3-.3-.8-.1-1.1.7-1.2 1-2.2 1.4-3.5.1-.4.4-.6.8-.7 2.9-.6 5-1.7 5-2.7V34c0-1.8-3.7-2.6-4.9-2.8-.4 0-.7-.3-.8-.7-.3-1.3-.8-2.5-1.5-3.6-.2-.3-.2-.7 0-1 1.5-2.6 2.2-5 1.5-5.7l-1-.6c-1.3-1.3-4.4.6-5.6 1.4-.3.2-.7.3-1.1.1-1.1-.6-2.3-1.1-3.6-1.5-.4-.1-.7-.4-.7-.8-.3-1.9-1.2-5-2.8-5h-1.4c-.9 0-2.1 2.2-2.7 5.1-.1.4-.3.6-.7.7-1.3.4-2.5.9-3.6 1.5-.3.2-.7.2-1.1-.1-1.5-1.1-4.4-2.6-5.5-1.5l-.8.8c-.7.7-.1 3.1 1.5 5.7.2.3.2.7 0 1-.6 1.1-1.1 2.3-1.5 3.6-.1.4-.4.7-.8.7-1.9.3-5.1 1.2-5.1 2.8l-.1 1.4c0 1 2.7 2.2 5.3 2.7.4.1.6.3.7.7.3 1.2.8 2.4 1.5 3.5.2.3.2.7-.1 1.1-1.1 1.5-2.7 4.5-1.6 5.6l.8.8c.8.8 3.6-.2 5.8-1.6.4-.1.6-.1.8-.1zm8.1-4.3c-2.4 0-4.6-.9-6.4-2.6l-.1-.1c-3.6-3.6-3.6-9.4 0-13 1.7-1.7 4-2.7 6.5-2.7 2.4 0 4.6.9 6.4 2.6l.1.1c3.6 3.6 3.6 9.4 0 13-1.8 1.7-4.1 2.7-6.5 2.7zm-5.2-4.2c0 .1 0 .1 0 0 1.5 1.4 3.3 2.2 5.2 2.2 1.9 0 3.7-.8 5.1-2.1 2.8-2.8 2.8-7.3.1-10.1l-.1-.1c-1.4-1.4-3.2-2.1-5.1-2.1-1.9 0-3.7.8-5.1 2.1-2.8 2.8-2.8 7.3-.1 10.1zm5.2.1c-1.4 0-2.6-.5-3.6-1.5s-1.5-2.2-1.5-3.6.5-2.6 1.5-3.6 2.2-1.5 3.6-1.5 2.6.5 3.6 1.5 1.5 2.2 1.5 3.6-.5 2.6-1.5 3.6-2.3 1.5-3.6 1.5zm0-8.2c-.8 0-1.6.3-2.2.9-.6.6-.9 1.4-.9 2.2 0 .8.3 1.6.9 2.2 1.2 1.2 3.2 1.2 4.4 0 .6-.6.9-1.4.9-2.2 0-.8-.3-1.6-.9-2.2-.6-.5-1.4-.9-2.2-.9z"/><path fill="#0EAF81" d="M47 94C21.1 94 0 72.9 0 47S21.1 0 47 0s47 21.1 47 47-21.1 47-47 47zm0-92C22.2 2 2 22.2 2 47s20.2 45 45 45 45-20.2 45-45S71.8 2 47 2z"/></svg>