<svg xmlns="http://www.w3.org/2000/svg" xmlns:xlink="http://www.w3.org/1999/xlink" viewBox="0 0 483.3 250.7" enable-background="new 0 0 483.3 250.7"><defs><circle id="SVGID_1_" cx="236.2" cy="122.4" r="57"/></defs><use xlink:href="#SVGID_1_" overflow="visible" fill="#0EAF81"/><clipPath id="SVGID_2_"><use xlink:href="#SVGID_1_" overflow="visible"/></clipPath><g id="XMLID_4_" clip-path="url(#SVGID_2_)"><path fill="#098262" d="M251.7 215.8l-1.1-41.3 2.9-11.3 1.3-6.7 2.7 10.6 5.5 18.1 7 32.6z"/><path fill="#fff" d="M262.3 95.4L262 98l-2.7-.8.2-1.3z"/><path fill="#098262" d="M256.8 103.9l2.4-5.7.1-1 2.7.8-.2 1.8-2.4 4.2-.4 1.9-3.3.5.3-.8z"/><path fill="#fff" d="M258.5 108.2l-3-1.4.2-.4 3.3-.5z"/><path fill="#098262" d="M262.3 95.4l-2.8.5.1-1.3.4-2.7.1-.9 2.2 4.4zM255.7 92.6l4.3-.7-.4 2.7z"/><path fill="#fff" d="M256.4 96.4l3.1-.5-.2 1.3zM253.8 115.4l3.4-.4-.6 2.5z"/><path fill="#098262" d="M256 105.6l-2.5-1.8 3.3.1z"/><path fill="#fff" d="M255.5 106.8l-.7-.2.9-.2zM252.6 124.7l-2.2 3.4 2.2-3.4zM250.4 128.1l-2.4-3.6 4.6.2z"/><path fill="#098262" d="M248.5 111.6l4.9.3-.5 1.3-.8 1.9zM252.9 113.2l-.8 1.9.8-1.9z"/><path fill="#fff" d="M246.2 132.1l3.9-.9-.2 3.8z"/><linearGradient id="SVGID_3_" gradientUnits="userSpaceOnUse" x1="246.929" y1="142.438" x2="247.535" y2="140.745"><stop offset="0" stop-color="#068E64"/><stop offset="1" stop-color="#0EAF81"/></linearGradient><path fill="url(#SVGID_3_)" d="M246.9 142.4l1.2-3-1.2 3z"/><path fill="#fff" d="M245.4 139.5l2.8-.4-.1.2-1.2 3c0-.2-1.5-2.8-1.5-2.8z"/><path fill="#098262" d="M242.3 123.3l3.8 1.1-1.7 2zM243.2 130.9l-.5 1.7-1.8-1.6zM232.4 152.8l-.9 4.2 3.5 11.1-5.2-11 .6-5.2zM258.5 108.2l-2.2 10.8-3.8 5.8-4.6-.2 2.4 3.6-.2 3.1-3.9.9 3.7 2.9-1.7 4.2-2.8.4s1.5 2.6 1.5 2.9l-2.7 6.6-8.1 5.5-3.8-1.7-2-.9.2-1.8.3-2.4 4-.8 7-11 .9-3.4.5-1.7 1.2-4.5 1.7-2 4.2-4.9 1.8-4.3.8-1.9.6-1.4 1.4-3.5.6-1.5 3 1.2zm-1.3 6.8l-3.3.4 2.8 2.1.5-2.5z"/><path fill="#FFD58A" d="M229.5 133.3l.7 2.2-.7-2.2z"/><path fill="#fff" d="M229.5 133.3l2.7.8-2 1.4zM227.3 127.1l3.2.7-2.2 2.3zM225.3 112.9l5 .4-4.8 2.4zM223.3 108.4l3.1.8-2.1 1.3z"/><path fill="#098262" d="M220.7 152l.1 4-1.9-3.3-3-4.8.5-3.7 2-1.2c-1 2-2.4 6.8 2.3 9z"/><path fill="#fff" d="M224 95.8l-3 2.7-.3-3zM216.8 87.3l4.5.6-3.4 1.2zM220.7 152c1.7-4.2 2.5-7.3-2.2-9.4-.1.1-.1.2-.2.3l-2 1.2-.5 3.7 3 4.8 1.9 3.3V152zm3.6-41.5l1.1 2.4.2 2.8.5 7.9 1.3 3.5 1.1 3 1.1 3.2.8 2.2 1.5 4.1-.9 8.1-.3 2.4-.2 1.8-.6 5.2 5.3 11-3.6-11.2.9-4.2 3.8 1.7 8.1-5.5 2.7-6.6 1.2-3 .1-.2 1.7-4.2.3-3.7.2-3.1 2.2-3.4 3.8-5.8 2.2-10.8.5-2.3.4-1.9 2.4-4.2-.1-1.7.3-2.6-2.2-4.4 4.5 2.5 2.6 6.7-2 11-3.3 17-6.2 24.4-.8 3.8-1.3 6.7-2.9 11.2 1.1 41.4-45.9-4.9 1.1-6 3.1-5.6 1-1.5 1.3-7.6.8-3.2 2.4-7.9 1-9.3-3.3-3.7v-10l-2.2-7.3 2.4-8.2.7-17.7-.6-5.4.6-5.3-2.1-9.7s-2.3-4.8-2.3-5.4 4-11.4 4-11.4l3.2 1.5 1.1 1.8 2.6 4.5.2 1.8.3 3v.3l-.3 3.7 2.6 5.9.8 2.4z"/></g><path fill="#fff" d="M236.2 187.2h-.5c-17.3-.1-33.5-7-45.7-19.3-12.1-12.3-18.8-28.7-18.6-46 .3-35.5 29.4-64.3 64.8-64.3h.5c35.7.3 64.6 29.6 64.3 65.3-.3 35.4-29.4 64.3-64.8 64.3zm0-128.7c-34.9 0-63.5 28.4-63.8 63.3-.1 17 6.4 33.1 18.3 45.3 12 12.2 27.9 18.9 45 19h.5c34.9 0 63.5-28.4 63.8-63.3.3-35.2-28.1-64.1-63.3-64.3h-.5zM52.5 15.5H42.4c-.3 0-.5.2-.5.5v4.9c0 .3.2.5.5.5h3.9v6.1s-.9.3-3.3.3c-2.9 0-6.9-1.1-6.9-9.9 0-8.9 4.2-10 8.1-10 3.4 0 4.9.6 5.8.9.3.1.6-.2.6-.5l1.1-4.8c0-.1 0-.3-.2-.4-.4-.3-2.7-1.6-8.6-1.6-6.7 0-13.7 2.9-13.7 16.7 0 13.8 7.9 15.9 14.6 15.9 5.5 0 8.9-2.4 8.9-2.4.1-.1.2-.3.2-.4V16c.1-.3-.1-.5-.4-.5zM104.6 3.2c0-.3-.2-.5-.5-.5h-5.7c-.2 0-.4.3-.4.5v11h-8.9v-11c0-.3-.2-.5-.5-.5H83c-.3 0-.5.2-.5.5V33c0 .3.2.5.5.5h5.7c.3 0 .5-.2.5-.5V20.3H98V33c0 .3.2.5.5.5h5.7c.3 0 .5-.2.5-.5V3.2z"/><g fill="#fff"><path d="M63.3 7.1c0-2-1.6-3.7-3.7-3.7-2 0-3.7 1.7-3.7 3.7s1.6 3.7 3.7 3.7c2 0 3.7-1.6 3.7-3.7zM62.9 26.7V13c0-.3-.2-.5-.5-.5h-5.7c-.3 0-.5.3-.5.5v19.7c0 .6.4.8.8.8h5.1c.6 0 .7-.3.7-.8.1-1.1.1-5.2.1-6z"/></g><path fill="#fff" d="M126.2 12.5h-5.6c-.3 0-.5.2-.5.5v14.6s-1.4 1-3.5 1c-2 0-2.6-.9-2.6-2.9V13c0-.3-.2-.5-.5-.5h-5.7c-.3 0-.5.2-.5.5v13.7c0 5.9 3.3 7.4 7.8 7.4 3.7 0 6.7-2.1 6.7-2.1s.1 1.1.2 1.2c.1.1.2.3.4.3h3.6c.3 0 .5-.2.5-.5V13c.2-.2 0-.5-.3-.5zM141.7 11.9c-3.2 0-5.4 1.4-5.4 1.4V3.2c0-.3-.2-.5-.5-.5h-5.7c-.3 0-.5.2-.5.5V33c0 .3.2.5.5.5h4c.2 0 .3-.1.4-.3.1-.2.2-1.4.2-1.4s2.3 2.2 6.7 2.2c5.2 0 8.2-2.6 8.2-11.8 0-9.1-4.7-10.3-7.9-10.3zm-2.3 16.7c-2-.1-3.3-.9-3.3-.9v-9.4s1.3-.8 2.9-.9c2-.2 4 .4 4 5.3.1 5-.8 6-3.6 5.9zM79.2 12.5H75V6.9c0-.2-.1-.3-.4-.3h-5.8c-.2 0-.3.1-.3.3v5.8s-2.9.7-3.1.8c-.2.1-.3.2-.3.5v3.7c0 .3.2.5.5.5h3V27c0 6.5 4.6 7.2 7.7 7.2 1.4 0 3.1-.5 3.4-.6.2-.1.3-.2.3-.4v-4c0-.3-.2-.5-.5-.5-.2 0-.9.1-1.5.1-2.1 0-2.8-1-2.8-2.2v-8.4h4.3c.3 0 .5-.2.5-.5V13c-.3-.3-.5-.5-.8-.5zM100.25 45.306l80.706 43.54-.475.88-80.704-43.54z"/><circle fill="#fff" cx="100.2" cy="45.9" r="3.8"/><circle fill="#fff" cx="180.5" cy="89.2" r="3.8"/><path fill="#fff" d="M371.415 45.3l.475.88-80.706 43.53-.474-.88z"/><circle fill="#fff" cx="371.5" cy="45.9" r="3.8"/><circle fill="#fff" cx="291.2" cy="89.2" r="3.8"/><path fill="#fff" d="M180.44 154.317l.473.88-80.723 43.494-.474-.88z"/><circle fill="#fff" cx="100.2" cy="198.2" r="3.8"/><circle fill="#fff" cx="180.5" cy="154.9" r="3.8"/><path fill="#fff" d="M93 124.6h79v1H93z"/><circle fill="#fff" cx="93.3" cy="124.8" r="3.8"/><circle fill="#fff" cx="171.7" cy="124.8" r="3.8"/><path fill="#fff" d="M291.855 154.284l80.706 43.54-.474.88-80.705-43.54z"/><circle fill="#fff" cx="372.2" cy="198.2" r="3.8"/><circle fill="#fff" cx="291.8" cy="154.9" r="3.8"/><path fill="#fff" d="M300 124.6h79v1h-79z"/><circle fill="#fff" cx="379.1" cy="124.8" r="3.8"/><circle fill="#fff" cx="300.6" cy="124.8" r="3.8"/><g fill="#fff"><path d="M63.7 220.2c0-3.5 2.5-5.9 7.2-5.9 2.8 0 5.1.9 6.4 1.8.2.1.5.4.3 1s-.7 1.5-1 2.1c-.2.3-.7.3-.9.2-.9-.5-2.4-1.2-3.7-1.4-.3 0-.7-.1-1 0-1.2 0-2.2.4-2.5 1.3-.1.2-.1.4-.1.5 0 1.2 1.6 1.6 3.6 2 3.7.6 6.6 1.7 6.6 5.6 0 3.3-2.6 6.2-7.7 6.1-3.3-.1-5.7-1.2-7-2.3 0 0-.5-.5-.3-1.1.3-.8.8-1.6 1.2-2.1.2-.3.8-.3 1.1-.2 1 .7 2.8 1.7 4.8 1.8h.5c1.8 0 2.9-.7 2.9-1.9 0-1-1.4-1.6-3.7-2-3.8-.7-6.7-1.9-6.7-5.5"/><path d="M96.4 225.2c-2.5 0-4.9.7-4.9 2.7 0 1.6 1.3 2.4 3.1 2.3 1.7-.2 3-.9 3.6-1.9.2-.4.2-1.7.2-2.3 0-.1-.3-.4-.4-.4-.5-.3-.9-.4-1.6-.4m-8.4-8c1.2-1.1 3.5-2.7 7.3-2.6 5 .1 7.6 2.4 7.8 8 .1 2.3-.1 8.7-.1 10.3 0 .2-.1.4-.4.4H99c-.4 0-.5-.2-.5-.5v-.9c0-.2-.2-.2-.2-.1-1.2 1.2-3.1 1.8-5.1 1.8-3.1 0-6.1-1.8-6.1-5.4 0-3.7 2.6-5.5 5.5-5.9 1.8-.3 3.9 0 5.5.6.1 0 .3 0 .3-.2 0-.5 0-1.4-.1-1.8-.2-1.1-1.1-1.9-3-2.2-.4 0-.8-.1-1.2 0-1.5.1-3.3 1.3-4.1 1.7-.2.1-.5 0-.5-.1-.4-.6-1.5-2.2-1.6-2.5-.2-.3-.1-.5.1-.6zM104.7 224c0-5.1 3.5-9.4 9.3-9.5 3.6 0 6.2 1.6 6.7 2.4.1.2 0 .3 0 .5-.3.6-1.1 1.9-1.6 2.6-.2.3-.5 0-.8-.2-.8-.5-2.4-1.2-3.9-1.2-2.8 0-4.9 1.9-4.8 5.4 0 3.4 2 5.2 4.9 5.3 1.5 0 2.9-.8 3.7-1.5.2-.2.5-.1.8.1.5.6 1.3 1.4 1.8 2 .3.3.1.7 0 .8-1.2 1.5-3.4 2.7-6.5 2.8-6.4.1-9.5-4.3-9.6-9.5"/><path d="M134.8 233.3c.3 0 3.4-.5 4.4-.7.2-.1.3-.3.2-.5-.5-.8-2-3.1-3.4-5.2-1.4-1.9-2.8-3.6-3.3-4.2-.1-.2-.1-.3 0-.4.9-.9 4.6-4.5 6-6 .5-.6.2-.8-.2-1-.9-.3-2.3-.6-3.1-.8-.3-.1-.8 0-1.1.3-1.4 1.3-5.7 5.6-6.9 6.9-.2.2-.4.2-.4-.2 0-2.5-.1-13-.1-14.7 0-.2-.3-.4-.4-.4-.8 0-2.8-.1-3.6 0-.2 0-.4.3-.5.4-.2 2.8.1 23.1.2 26 0 .2.2.4.4.4h3.7c.5 0 .5-.3.5-.3l.1-5.5s0-.2.1-.3c.3-.3 1.2-1.3 1.6-1.7.1-.1.2-.1.3 0 .5.6 1.7 2.6 2.9 4.4 1.1 1.6 2.1 3.1 2.2 3.2 0 .3.2.3.4.3zM81.2 233.3h3.3c.3 0 .5-.2.5-.4.2-4 .1-23 0-26 0-.3-.1-.4-.3-.4-.8-.1-3.1-.1-3.8.1-.1 0-.2.1-.2.3-.2 7.7-.1 25.6 0 25.9-.1.3.1.5.5.5zM57.1 224.7c-.5-1.4-2-2.2-3.4-1.7l-3.3 1.2-2.5-7.2 3.3-1.2c1.4-.5 2.2-2 1.7-3.4-.5-1.4-2-2.2-3.4-1.7l-3.3 1.2-1.2-3.3c-.5-1.4-2-2.2-3.4-1.7-1.4.5-2.2 2-1.7 3.4l1.2 3.3-7.2 2.5-1.2-3.3c-.5-1.4-2-2.2-3.4-1.7-1.4.5-2.2 2-1.7 3.4l1.2 3.3-3.3 1.2c-1.4.5-2.2 2-1.7 3.4.5 1.4 2 2.2 3.4 1.7l3.3-1.2 2.5 7.2-3.3 1.2c-1.4.5-2.2 2-1.7 3.4.5 1.4 2 2.2 3.4 1.7l3.3-1.2 1.2 3.3c.5 1.4 2 2.2 3.4 1.7 1.4-.5 2.2-2 1.7-3.4l-1.2-3.3L47 231l1.2 3.3c.5 1.4 2 2.2 3.4 1.7 1.4-.5 2.2-2 1.7-3.4l-1.2-3.3 3.3-1.2c1.4-.4 2.2-2 1.7-3.4zM38 228.5l-2.5-7.2 7.2-2.5 2.5 7.2-7.2 2.5z"/></g><path fill="#fff" d="M36.5 119.4l3.3 9.3h-9.6l3.3-9.3c.7-1.9 1.5-5.7 1.5-5.7 0-.1.8 3.8 1.5 5.7zM69 90.6v69H0v-69h69zm-17 46h-.4c-.9 0-1.3 0-1.7-.9l-11.3-28.1h-7.3L20 135.7c-.3.9-.7.9-1.7.9H17v5h4.7c2.7 0 3.6-.2 4.4-2.4l2.4-5.6h12.9l2.4 5.6c.9 2.2 1.8 2.4 4.5 2.4H52v-5z"/><g id="Page-1"><g id="Assets"><g id="Trello-Logo"><g id="Trello-Logo---White"><g id="Logo" fill="#fff"><path id="Type" d="M421.3 26.7c-1.9.8-3.4 3.5-5.7 5-.1.1-.3.1-.4.1-.2 0-.4-.2-.4-1 0-3 1-4.4 1.8-6.5 2.8-7.3 7.6-13.5 11.9-20.4.3-.5.5-1.1.5-1.7 0-.5-.2-1-.4-1.5-.2-.4-1-.8-2-.8H425c-2.2 0-2.7 3.3-3.2 4.1-3.6 6.1-7.7 13.5-9.8 18.8-.5 1.2-1 2.4-1.3 3.6-2.1.6-3.6 3.5-6.1 5.1-.1.1-.3.1-.4.1-.2 0-.4-.2-.4-1 0-3 1-4.4 1.8-6.5 2.8-7.3 7.6-13.5 11.9-20.4.3-.5.5-1.1.5-1.7 0-.5-.2-1-.4-1.5-.2-.4-1-.8-2-.8H414c-2.2 0-2.7 3.3-3.2 4.1-3.6 6.1-7.7 13.5-9.8 18.8-.2.4-.3.9-.5 1.3-.1 0-.1.1-.2.1-2.4 1.4-4.5 4-7.4 5.7-.6.3-2.3 1.6-3.8 1.6-.3 0-.6-.1-.9-.2-.4-.2-.9-1.1-.9-1.4 0-.2 0-.3.5-.6 4.2-2.5 7.6-6.1 10.6-9.8 1.1-1.3 2.5-4 2.5-5.9 0-1.2-.4-2.7-1.9-3.2-1-.4-2.2-.6-3.2-.6-2.5 0-4.4 1.1-5.4 2.2-1.1 1.1-2.1 2.3-3.1 3.5-1-.9-2.4-1.2-3.8-1.2-1.6 0-4.5 2-6.1 3.1-.2.2-.4.3-.5.3 0 0-.1 0-.1-.1 0 0 .1-.5.1-1.2s-.1-1.5-.8-2.6c-.1-.2-1-.8-2-.8-1.3 0-2.5.6-2.5 1.3 0 .5.4.7.4 1.1 0 .2-.2 1.3-.5 2.4-.8 3.1-1.8 6.1-2.9 9.1-.6 1.7-2.5 3.1-2.5 5 0 .6.4 1.3.9 1.9.9 1 1.4 1.3 2.1 1.3.3 0 .7-.1 1-.4.7-.6 1.1-1.2 1.3-2.1 1.2-5.6 4.8-9.4 8.8-12 1.3-.9 3.1-1.8 3.4-1.8.2 0 .6.1 1 .2-1.1 1.8-2 3.7-2.6 5.7-.2.7-.3 1.3-.3 2 0 1.1.2 2.2.6 3.3.5 1.5 1.4 2.9 2.6 3.5 2.2 1.1 3.8 1.8 5.2 1.8.8 0 1.4-.1 2.1-.5 3.1-1.8 5.1-3.1 6.4-4.3 0 1.2.3 1.9 1.1 2.8.9.9 2.2 1.7 4 2.1.3 0 .6.1.9.1 2 0 4-1.6 5.5-3.3.2.4.4.7.8 1.1.9.9 2.2 1.7 4 2.1.3 0 .6.1.9.1 2.4 0 4.6-2.3 6.2-4.1.5 1.1 2 2.1 3.7 3 .5.2 1 .4 1.6.4 2 0 3.5-1.7 4.7-2.9 3-3.2 4.6-7.2 5.8-12.3.1-.4.2-.5.4-.5.5 0 1.1 0 1.8-.1 1.3-.2 2.3-.6 3.5-.8.7-.1.6-.4 1.3-.6.5-.2.9-.4.9-.9 0-.8-1.5-1.7-3.7-1.7-1.8 0-2.8.1-3.5.1-1.1 0-1.4-.3-2.1-2.2 0 0 .7 1.9 0 0-.1-.4-.3-.6-.7-1-1-.9-2.2-1.1-3.2-1.1-2.4 0-4.4 2.4-5.9 4.5-.3.5-.8.9-1.1 1.4-2.1 3.3-4 6.6-4.2 10.2zm-60.9-16.2c1.2 0 1.9-.1 2-.1.1 0 .2 0 .2.2 0 .1 0 .2-.4 1-2.9 6.2-4.9 12.6-6.7 19.6 0 .2-.2.9-.2 1.6 0 .7.2 1.4.9 1.8 1.3.8 2.3 1.1 3.1 1.1 1 0 1.6-.7 1.6-1.8 0-1 0-2 .2-2.7 1.3-7 3.3-12.5 6.4-18.2 1.5-2.7 1.7-2.9 1.7-3.1 0-.1 0-.2-.1-.4 1.9-.4 4.2-.7 6.3-.7.2 0 1.2.3 1.3.5.3.3.7.7 1.2.7s1.3-.3 1.6-.5c.7-.5 1-1 1-1.9 0-.8-3-2.8-5.1-2.8-2.6 0-4.9.3-7.1.8-1 .2-4.4.7-6.9.7-2.4 0-2.2-.3-3.2-.3-.6 0-.9.3-1.1.5s-.4 1.2-.4 2c0 .4 0 .8.2 1 .7.8 2.1 1 3.5 1 0 0-1.4 0 0 0zm35.3 3.8c0 .4-.1.7-.7 1.6-.6.9-.3.9-1 1.9-1.4 1.9-3.1 3.7-5.3 5.8-.6.6-.7.6-.8.6 0 0-.1 0-.1-.1s0-.3.5-1.3c1.5-3.1 3.3-5.1 5.3-7.1 1.1-1.1 1.8-1.5 2-1.5 0-.1.1-.1.1.1 0 0 0-.2 0 0zm36.6 1.3s.1 0 .1.1.1.3.4.5c.2.1.2.8.2 1.3 0 4.6-2.6 8.4-5.2 12.3-.6.9-.9 1-1.2 1-.2 0-.6-.6-.8-1-.2-.5-.2-1.1-.2-1.4 0-3.7 3.5-9.2 5.9-12.3.4-.5.7-.5.8-.5 0 0-.1 0 0 0z"/><path d="M349 9.4c0-2.1-1.7-3.8-3.8-3.8h-21.5c-2.1 0-3.8 1.7-3.8 3.8v21.5c0 2.1 1.7 3.8 3.8 3.8h21.5c2.1 0 3.8-1.7 3.8-3.8V9.4zm-17 18.7c0 1 .3 3.5-.7 3.5h-5.6c-1 0-1.7-2.5-1.7-3.5V11c0-1 .7-1.3 1.7-1.3h5.6c1 0 .7.3.7 1.3v17.1zm13-7.3c0 1-.8 1.8-1.8 1.8h-5.4c-1 0-1.8-.8-1.8-1.8v-9.4c0-1 .8-1.8 1.8-1.8h5.4c1 0 1.8.8 1.8 1.8v9.4z"/></g></g></g></g></g><g fill-rule="evenodd" clip-rule="evenodd" fill="#fff" id="OvHZFw.tif"><path d="M406.9 214.9c-2.8 4.6-5.4 9.1-8.1 13.6-.7 1.1-1 2.1-.5 3.5 1.5 4-.6 7.9-4.7 9-3.8 1-7.5-1.5-8.3-5.6-.7-3.6 2.1-7.2 6.1-7.7.3 0 .7-.1 1.2-.1 2-3.3 4-6.6 6.1-10.2-3.8-3.8-6.1-8.2-5.6-13.7.4-3.9 1.9-7.3 4.7-10 5.4-5.3 13.5-6.1 19.8-2.1 6.1 3.9 8.8 11.5 6.5 18-1.8-.5-3.6-1-5.6-1.5.7-3.6.2-6.8-2.2-9.6-1.6-1.8-3.7-2.8-6-3.1-4.7-.7-9.3 2.3-10.7 6.9-1.5 5.1.9 9.3 7.3 12.6zM414.8 209.4c1.9 3.4 3.9 6.9 5.9 10.4 9.9-3.1 17.3 2.4 20 8.3 3.2 7.1 1 15.5-5.3 19.8-6.5 4.5-14.8 3.7-20.5-2 1.5-1.2 2.9-2.5 4.5-3.8 5.7 3.7 10.7 3.5 14.4-.9 3.2-3.7 3.1-9.3-.2-12.9-3.7-4.2-8.8-4.3-14.8-.3-2.5-4.5-5.1-8.9-7.5-13.4-.8-1.5-1.7-2.4-3.6-2.7-3.1-.5-5.1-3.2-5.2-6.2-.1-2.9 1.6-5.6 4.3-6.6 2.7-1 5.8-.2 7.6 2.1 1.5 1.9 1.9 4 1.2 6.3-.2.5-.5 1.1-.8 1.9zM419.4 237.4h-11.9c-1.1 4.7-3.6 8.5-7.9 10.9-3.3 1.9-6.9 2.5-10.6 1.9-7-1.1-12.7-7.4-13.2-14.5-.6-8 4.9-15.1 12.3-16.7.5 1.8 1 3.7 1.5 5.5-6.7 3.4-9.1 7.8-7.2 13.2 1.7 4.8 6.4 7.4 11.5 6.4 5.2-1 7.9-5.4 7.5-12.3 5 0 9.9-.1 14.9 0 1.9 0 3.4-.2 4.9-1.9 2.4-2.8 6.8-2.6 9.4.1 2.6 2.7 2.5 7.1-.3 9.7-2.7 2.5-7 2.4-9.5-.3-.5-.6-.9-1.3-1.4-2z"/></g><g id="outlines_4_" fill="#fff"><path d="M431.2 118.6l-2.5-5.2c-.6-1.2-1.2-2.6-1.4-3.3.1.9.1 2.1.1 3.1l.1 5.4h-1.8v-11.1h2.1l2.7 5.4c.5 1 1 2.3 1.1 2.9 0-.6-.2-2.2-.2-3.2v-5.1h1.8v11.1h-2zM436.4 115v.1c0 1.1.4 2.3 2 2.3.8 0 1.4-.3 2-.8l.7 1.1c-.9.7-1.8 1.1-2.9 1.1-2.3 0-3.7-1.7-3.7-4.3 0-1.4.3-2.4 1-3.2.7-.8 1.5-1.1 2.5-1.1.8 0 1.5.2 2.2.8.7.6 1.1 1.6 1.1 3.5v.4h-4.9zm1.6-3.4c-1 0-1.5.8-1.5 2.1h3c-.1-1.3-.6-2.1-1.5-2.1zM450.7 118.6H449l-1-3.7c-.3-1-.5-2.2-.5-2.2s-.1.8-.5 2.3l-1 3.7h-1.7l-2.2-8 1.8-.2.9 3.9c.2 1 .4 2.1.4 2.1s.2-1.1.5-2.2l1-3.8h1.7l.9 3.7c.3 1.3.5 2.3.5 2.3s.2-1.2.4-2.2l.8-3.8h1.8l-2.1 8.1zM429.8 132.9l-1-1.7c-.8-1.4-1.3-2.1-1.9-2.7-.2-.2-.4-.3-.7-.3v4.8h-1.8v-11.1h3.4c2.5 0 3.6 1.4 3.6 3.2 0 1.6-1 3.1-2.8 3.1.4.2 1.1 1.3 1.7 2.2l1.6 2.7h-2.1zm-2.6-9.7h-1v3.5h.9c1 0 1.5-.1 1.8-.5.3-.3.5-.8.5-1.3.1-1.1-.6-1.7-2.2-1.7zM434.4 129.3v.1c0 1.1.4 2.3 2 2.3.8 0 1.4-.3 2-.8l.7 1.1c-.9.7-1.8 1.1-2.9 1.1-2.3 0-3.7-1.7-3.7-4.3 0-1.4.3-2.4 1-3.2.7-.8 1.5-1.1 2.5-1.1.8 0 1.5.2 2.2.8.7.6 1.1 1.6 1.1 3.5v.4h-4.9zm1.6-3.4c-1 0-1.5.8-1.5 2.1h3c-.1-1.3-.7-2.1-1.5-2.1zM442.6 133c-1.8 0-1.8-1.6-1.8-2.3v-6.9c0-1.1 0-1.7-.2-2.4l1.8-.4c.1.5.1 1.2.1 2.2v6.9c0 1.1 0 1.3.2 1.5.1.1.4.2.6.1l.3 1.1c-.3.2-.6.2-1 .2zM445.6 123.5c-.6 0-1.1-.5-1.1-1.2s.5-1.2 1.2-1.2c.6 0 1.2.5 1.2 1.2-.1.7-.6 1.2-1.3 1.2zm-.8 9.4v-8l1.8-.3v8.3h-1.8zM451.6 133.1c-2.2 0-3.5-1.6-3.5-4.2 0-3 1.8-4.4 3.6-4.4.9 0 1.5.2 2.2.9l-.9 1.2c-.5-.4-.9-.6-1.4-.6-.6 0-1 .3-1.3.8-.2.5-.3 1.3-.3 2.3 0 1.1.2 1.8.5 2.2.3.3.6.5 1.1.5.6 0 1.1-.3 1.6-.8l.8 1.1c-.5.6-1.3 1-2.4 1zM455.7 133c-.7 0-1.2-.5-1.2-1.2s.5-1.2 1.2-1.2 1.2.5 1.2 1.2-.5 1.2-1.2 1.2zm0-2.1c-.5 0-.9.4-.9 1s.4 1 .9 1 .9-.4.9-1-.4-1-.9-1zm.2 1.6c-.1-.1-.1-.1-.1-.2-.1-.2-.2-.3-.2-.3v.6h-.3v-1.3h.5c.2 0 .4.2.4.4s-.1.4-.3.4l.1.1c.1.1.3.5.3.5h-.4zm-.1-1.1H455.5v.4H455.8l.1-.1c0-.2 0-.3-.1-.3zM436.7 155.8c-19 0-34.5-10.4-37.7-25.4-1.9-8.9.6-18.2 7.2-26.2 6.5-8 16.3-13.7 27.4-16.1 3.8-.8 7.6-1.2 11.3-1.2 19 0 34.5 10.4 37.7 25.4 4 18.3-11.5 37.3-34.6 42.3-3.7.7-7.5 1.2-11.3 1.2zm8.2-68.1c-3.7 0-7.4.4-11.1 1.2-11 2.4-20.5 8-26.9 15.8-6.4 7.8-8.9 16.8-7 25.5 3.2 14.5 18.3 24.7 36.9 24.7 3.7 0 7.4-.4 11.1-1.2 22.6-4.9 37.8-23.4 33.9-41.3-3.2-14.5-18.3-24.7-36.9-24.7zM445.1 151.8c-16.5 0-30-13.5-30-30s13.5-30 30-30 30 13.5 30 30-13.5 30-30 30zm0-59.2c-16.1 0-29.1 13.1-29.1 29.1s13.1 29.1 29.1 29.1c16.1 0 29.1-13.1 29.1-29.1s-13.1-29.1-29.1-29.1zM439.3 143.4c-12.5 0-22.6-10.1-22.6-22.6 0-12.5 10.1-22.6 22.6-22.6 12.5 0 22.6 10.1 22.6 22.6 0 12.5-10.1 22.6-22.6 22.6zm0-44.3c-12 0-21.7 9.8-21.7 21.7 0 12 9.8 21.7 21.7 21.7 12 0 21.7-9.8 21.7-21.7.1-12-9.7-21.7-21.7-21.7z"/></g></svg>