<svg xmlns="http://www.w3.org/2000/svg" xmlns:xlink="http://www.w3.org/1999/xlink" viewBox="0 0 178 322.1" enable-background="new 0 0 178 322.1"><defs><path id="SVGID_1_" d="M0 0h178v322.1H0z"/></defs><clipPath id="SVGID_2_"><use xlink:href="#SVGID_1_" overflow="visible"/></clipPath><g id="XMLID_2_" clip-path="url(#SVGID_2_)"><linearGradient id="SVGID_3_" gradientUnits="userSpaceOnUse" x1="152.634" y1="350.368" x2="129.764" y2="204.826"><stop offset="0" stop-color="#068E64"/><stop offset="1" stop-color="#0EAF81"/></linearGradient><path fill="url(#SVGID_3_)" d="M162.8 291.1l19.4 89.7-50.4-5.4-3.1-113.7 7.9-30.9 3.7-18.4 7.4 29.2z"/><path fill="#0EAF81" d="M73 199.7L71.4 214l14.5 30.3-9.8-30.7 2.5-11.5 10.4 4.6 22.1-15 7.3-18.2 3.4-8.4.2-.6 4.7-11.5.7-10.3.6-8.5 16.5-25.2 6-29.6 1.2-6.1v-.1l1-5.1 6.7-11.7.5-4.8.2.1.6-7.3-6.1-12.1 12.3 6.9 7.2 18.6L147.9 161l-7.6 51.4-3.6 18.3-7.9 30.9 3.1 113.8L5.7 362l2.9-16.6 8.6-15.3 2.7-4 3.6-20.8 2.2-8.8 6.5-21.8.5-4.2 18.8-1.2 18.1 2-24.2-11.8-10.2-10.1-2.4 21.1 2.4-21.5-9.2-10.2 3.5-26.3-6.5-21.8 6.9-18.3 3.5-31.3-3-31.6 1.7-15.2-3.5-23.5L20.7 50l6.5-32v-.1l8.7 4.2 2.9 5L46 39.5l.5 5.1.9 8.3.1.9-.8 10.2 7.1 16.2.2.3 2.3 5.4 2.9 6.6.5 7.6 1.4 21.7 3.5 9.7 2.9 8.1 3.2 8.9 2.1 6 4 11.3-2.5 22.4-.7 6.5-.6 5zm-30.9 4.4l-.1-8c2.6-8.4 3.8-14.8-3.3-18.8-.1.2-.2.4-.3.7l-3 2.3-.8 7.5 4.6 9.7 2.9 6.6z"/><path fill="#068E64" d="M174.1 57.8l-5.6 30.3-9 46.7-17.1 67.1-2.1 10.5 7.6-51.4z"/><path fill="#FFD58A" d="M160.8 44.4l-.5 7.2h-.3z"/><linearGradient id="SVGID_4_" gradientUnits="userSpaceOnUse" x1="147.236" y1="76.293" x2="152.347" y2="62.022"><stop offset="0" stop-color="#068E64"/><stop offset="1" stop-color="#0EAF81"/></linearGradient><path fill="url(#SVGID_4_)" d="M160 51.6l-.5 4.8-6.7 11.7-1 5.1-9.1 1.5 1-2.4 2-4.7 6.6-15.5.4-2.7z"/><path fill="#FFD58A" d="M160.8 44.4l-.8 7.2-7.3-2.2.4-3.7z"/><linearGradient id="SVGID_5_" gradientUnits="userSpaceOnUse" x1="154.916" y1="46.306" x2="157.349" y2="39.515"><stop offset="0" stop-color="#068E64"/><stop offset="1" stop-color="#0EAF81"/></linearGradient><path fill="url(#SVGID_5_)" d="M160.8 44.4l-7.7 1.3.4-3.5.9-7.5.3-2.4z"/><path fill="#FFD58A" d="M151.8 73.2l-.1.1-1.2 6.1-8.3-3.6.5-1.1zM150.5 79.4l1.2-6.1-1.1 6.1z"/><linearGradient id="SVGID_6_" gradientUnits="userSpaceOnUse" x1="88.647" y1="206.625" x2="114.795" y2="133.612"><stop offset="0" stop-color="#068E64"/><stop offset="1" stop-color="#0EAF81"/></linearGradient><path fill="url(#SVGID_6_)" d="M150.5 79.4l-6 29.6-16.5 25.2-.6 8.5-10.8 2.4 10.1 7.9-4.7 11.5-7.7 1.1s4.2 7.1 4.1 7.8l-7.3 18.2-22.1 15-10.4-4.6-5.5-2.4.5-4.9.7-6.5 10.9-2.2 19.2-30.2 2.6-9.3 1.3-4.6 3.4-12.4 4.8-5.5 11.6-13.4 4.8-12 3.4-8.3h-.1l4.2-10.3 1.8-4.1 8.3 3.5zm-5.2 25.6l1.4-6.9-9.1 1.2 7.7 5.7zm-17.8 29.1l4.9-8.5-11-1.2 6.1 9.7z"/><path fill="#D1AD74" d="M154.4 34.7l-.9 7.5-10.8-5.6z"/><path fill="#FFD58A" d="M153.1 45.7l-.4 3.7-8.1-2.4zM146.7 98.1l-1.4 6.9-7.7-5.7z"/><path fill="#D1AD74" d="M145.7 67.6l-2 4.7-7.1-4.8z"/><path fill="#FFD58A" d="M142.7 74.7l-.5 1.1-1.8-.8z"/><path fill="#D1AD74" d="M136.4 90.3l-3.5 8.3 3.4-8.3z"/><path fill="#FFD58A" d="M132.4 125.6l-4.9 8.5-6-9.7z"/><path fill="#D1AD74" d="M136.3 90.3l-3.4 8.3-10-9.8z"/><path fill="#FFD58A" d="M127.4 142.8l-.7 10.3-10.1-7.9zM122.1 164.6l-.2.6-3.4 8.3c.1-.7-4.1-7.8-4.1-7.8l7.7-1.1z"/><linearGradient id="SVGID_7_" gradientUnits="userSpaceOnUse" x1="118.612" y1="173.653" x2="120.279" y2="168.998"><stop offset="0" stop-color="#068E64"/><stop offset="1" stop-color="#0EAF81"/></linearGradient><path fill="url(#SVGID_7_)" d="M118.4 173.6l3.4-8.4-3.4 8.4z"/><path fill="#D1AD74" d="M116.4 124l-4.7 5.5-5.8-8.3zM108.3 141.8l-1.3 4.7-5.1-4.2z"/><path fill="#068E64" d="M76.1 213.6l9.8 30.7L71.4 214l1.6-14.3 5.6 2.4zM69.6 271.4l-18.1-2-18.8 1.1 2.4-21.1 10.2 10.1z"/><path fill="#FFD58A" d="M78.1 150.9l-5.4 3.7-2.1-6zM70.6 148.6l2.1 6-2.1-6zM73.4 133.5l-6 6.2-2.9-8.1zM73 93.5l-13.3 6.6-.5-7.6zM62.1 82.2l-5.8 3.7-2.4-5.4-.1-.3zM56.3 85.9l-2.4-5.4z"/><path fill="#068E64" d="M42 196.1l.1 8-2.9-6.6-4.6-9.7.8-7.5 3-2.3c-1.6 4.2-3.6 13.8 3.6 18.1z"/><path fill="#FFD58A" d="M55.6 45.6l-8.2 7.2-.9-8.3z"/><linearGradient id="SVGID_8_" gradientUnits="userSpaceOnUse" x1="7.737" y1="126.293" x2="38.544" y2="129.707"><stop offset="0" stop-color="#068E64"/><stop offset="1" stop-color="#0EAF81"/></linearGradient><path fill="url(#SVGID_8_)" d="M22.9 190.6l6.5 21.8-3.5 26.3.1-27.6-6-20.2 6.5-22.6 1.8-48.6-1.6-14.8 1.6-14.4L22.5 64s-6.4-13.2-6.2-14.8c.2-1.6 10.2-29.5 10.9-31.2l-6.6 31.8 7.9 20.8L32 94.1l-1.7 15.2 3 31.6-3.5 31.3-6.9 18.4z"/><path fill="#FFD58A" d="M48.3 23.6l-9.5 3.5-2.9-5z"/></g></svg>