<svg xmlns="http://www.w3.org/2000/svg" xmlns:xlink="http://www.w3.org/1999/xlink" viewBox="0 0 70 70" enable-background="new 0 0 70 70"><circle fill="#fff" cx="35" cy="35" r="34"/><defs><circle id="SVGID_1_" cx="35" cy="35" r="34"/></defs><clipPath id="SVGID_2_"><use xlink:href="#SVGID_1_" overflow="visible"/></clipPath><path clip-path="url(#SVGID_2_)" fill="#098262" d="M55.2 91.9L51 72.5l-3.3-10.7-1.6-6.3.5-2.3 3.7-14.5 2-10.1 1.2-6.6-1.4-4-2.6-1.5-.2.5-2.6.4 2.4 1.2v.7l-2.1.3 1.8.5-.1.6-1.4 3.3h-2l1.5 1-.2.5-.1.2-.4.9-.8 2.1-3-.2 2.2 2.1-1 2.6-2.5 3-2.3-.6 1.3 1.8-.7 2.7-1.4.1 1.1.9-.6 2-4.2 6.6-4.9 1-3.5 38.2 18.4 2 11 1zM44.8 36.4l-2.8-.1 2.8.1z"/><path clip-path="url(#SVGID_2_)" fill="#0DAF81" d="M52 17.8l-2.6-1.5 1.5 2.6-1.9.3-2.1.3 1.8.5 1.6.5-.1 1-1.5 2.5-.2 1.1-2 .3-.1.2 1.8.8-.8 4.1-2 .3 1.7 1.2-.1 1-2.3 3.5-2.7-.2 1.4 2.1-.1 1.9-2.3.5 2.2 1.7-1.1 2.5-1.8.2s.7 1.5.7 1.7l-1.4 3.9-4.6 3.4-2.3-1-.5 2.5 2.1 6.7-3.1-6.6.3-3.1.1-1.1.2-1.4.5-4.9-.9-2.4 1.2-.8-1.6-.6v.1-.1l-.7-1.9 1.3-1.3-2-.4-.8-2.1-.3-4.8 2.8-1.4-3.2-.2-1.1-1.5 1.7-.8-1.3-.4-1.5-3.5.1-2.2v-.2l1.8-1.6-2-.2-.1-1.1-1.6-2.7 2.1-.8-2.7-.3-1.9-.9s-2.3 6.4-2.4 6.8c0 .3 1.4 3.2 1.4 3.2l1.2 5.8-.3 3.1.3 3.2-.4 10.5-1.4 4.9 1.3 4.4v6l2 2.2-.6 5.6-1.4 4.7-.5 1.9-.8 4.6-.6.9-1.9 3.3-.6 3.6 27.4 2.9-.7-24.7 1.7-6.7.8-4 .5-2.3 3.7-14.5 2-10.1 1.2-6.6-1.5-4.1zM24.5 47.1c2.8 1.2 2.3 3.1 1.3 5.6-2.8-1.3-2-4.1-1.4-5.4 0-.1.1-.1.1-.2z"/><path clip-path="url(#SVGID_2_)" fill="#098262" d="M24.4 47.3l-1.2.7-.3 2.2 1.8 2.9 1.2 1.9-.1-2.4c-2.8-1.2-2-4.1-1.4-5.3z"/><path fill="#0EAF81" d="M35 70C15.7 70 0 54.3 0 35S15.7 0 35 0s35 15.7 35 35-15.7 35-35 35zm0-68C16.8 2 2 16.8 2 35s14.8 33 33 33 33-14.8 33-33S53.2 2 35 2z"/></svg>