<svg xmlns="http://www.w3.org/2000/svg" viewBox="0 0 94 94" enable-background="new 0 0 94 94"><path fill="#0EAF81" d="M47 94C21.1 94 0 72.9 0 47S21.1 0 47 0s47 21.1 47 47-21.1 47-47 47zm0-92C22.2 2 2 22.2 2 47s20.2 45 45 45 45-20.2 45-45S71.8 2 47 2zM39.7 66.6c-1.2 0-2.3-.5-3.2-1.4l-12-13.5c-.8-.9-1.3-2.1-1.3-3.3 0-2.6 2-4.8 4.5-4.8 1.2 0 2.3.5 3.2 1.4l8.9 10 23.4-25.6c.8-.9 2-1.4 3.2-1.4 2.5 0 4.5 2.1 4.5 4.8 0 1.3-.5 2.4-1.3 3.3L42.9 65.2c-.8.9-2 1.4-3.2 1.4zm-12.1-21c-1.4 0-2.5 1.3-2.5 2.8 0 .8.3 1.5.8 2L38 63.9c.9 1 2.5 1 3.5 0l26.6-29.1c.5-.5.8-1.3.8-2 0-1.6-1.1-2.8-2.5-2.8-.7 0-1.3.3-1.7.8l-25 27.1-10.3-11.6c-.5-.5-1.1-.7-1.8-.7z"/></svg>