<svg xmlns="http://www.w3.org/2000/svg" xmlns:xlink="http://www.w3.org/1999/xlink" viewBox="0 0 94 94" enable-background="new 0 0 94 94"><path fill="#0EAF81" d="M47 94C21.1 94 0 72.9 0 47S21.1 0 47 0s47 21.1 47 47-21.1 47-47 47zm0-92C22.2 2 2 22.2 2 47s20.2 45 45 45 45-20.2 45-45S71.8 2 47 2z"/><defs><circle id="SVGID_1_" cx="47" cy="47" r="46"/></defs><clipPath id="SVGID_2_"><use xlink:href="#SVGID_1_" overflow="visible"/></clipPath><path clip-path="url(#SVGID_2_)" fill="#0EAF81" d="M29.1 96.6c-.9 0-1.7-.2-2.5-.7l-11.8-7c-1.5-.9-2.4-2.5-2.4-4.2V71.4c0-1.8 1-3.4 2.5-4.3l11.7-6.4c1.5-.8 3.4-.8 4.9.1l11.8 7c1.5.9 2.4 2.5 2.4 4.2v13.3c0 1.8-1 3.4-2.5 4.3L31.4 96c-.7.4-1.5.6-2.3.6zm-.2-34.5c-.5 0-1 .1-1.4.4l-11.7 6.4c-.9.5-1.5 1.5-1.5 2.6v13.3c0 1 .6 2 1.5 2.5l11.8 7c.9.5 2 .5 2.9 0l11.7-6.4c.9-.5 1.5-1.5 1.5-2.6V72c0-1-.6-2-1.5-2.5l-11.8-7c-.4-.3-.9-.4-1.5-.4zM11.9 66c-.9 0-1.7-.2-2.5-.7l-11.8-7c-1.5-.9-2.4-2.5-2.4-4.2V40.8c0-1.8 1-3.4 2.5-4.3l11.7-6.4c1.5-.8 3.4-.8 4.9.1l11.8 7c1.5.9 2.4 2.5 2.4 4.2v13.3c0 1.8-1 3.4-2.5 4.3l-11.7 6.4c-.7.4-1.5.6-2.4.6zm-.1-34.5c-.5 0-1 .1-1.4.4l-11.7 6.4c-.9.5-1.5 1.5-1.5 2.6v13.3c0 1 .6 2 1.5 2.5l11.8 7c.9.5 2 .5 2.9 0L25 57.3c.9-.5 1.5-1.5 1.5-2.6V41.4c0-1-.6-2-1.5-2.5l-11.8-7c-.4-.3-.9-.4-1.4-.4zM65.1 97.2c-.9 0-1.7-.2-2.5-.7l-11.8-7c-1.5-.9-2.4-2.5-2.4-4.2V72c0-1.8 1-3.4 2.5-4.3l11.7-6.4c1.5-.8 3.4-.8 4.9.1l11.8 7c1.5.9 2.4 2.5 2.4 4.2v13.3c0 1.8-1 3.4-2.5 4.3l-11.7 6.4c-.8.4-1.6.6-2.4.6zm-.2-34.5c-.5 0-1 .1-1.4.4l-11.7 6.4c-.9.5-1.5 1.5-1.5 2.6v13.3c0 1 .6 2 1.5 2.5l11.8 7c.9.5 2 .5 2.9 0l11.7-6.4c.9-.5 1.5-1.5 1.5-2.6V72.6c0-1-.6-2-1.5-2.5l-11.8-7c-.4-.3-.9-.4-1.5-.4z"/><g clip-path="url(#SVGID_2_)" fill="#0EAF81"><path d="M47 61.7c-.5 0-1-.4-1-1V47.8c0-.4.2-.7.5-.9l2-1 11.6-6.4c.9-.5 1.5-1.5 1.5-2.6V23.6c0-1-.6-2-1.5-2.5l-11.8-7c-.9-.5-2-.5-2.9 0l-11.7 6.4c-.8.5-1.4 1.5-1.4 2.5v13.3c0 1 .5 2 1.5 2.5l10 5.8c.5.3.6.9.4 1.3-.3.5-.9.6-1.3.4l-10-5.8c-1.5-.9-2.4-2.5-2.4-4.2V23c0-1.8 1-3.4 2.5-4.3l11.7-6.4c1.5-.8 3.4-.8 4.9.1l11.8 7c1.5.9 2.4 2.5 2.4 4.2v13.3c0 1.8-1 3.4-2.5 4.3L48 48.4v12.3c0 .5-.5 1-1 1zM47 62.4l-3.6-3.6c-.4-.4-.4-1 0-1.4.4-.4 1-.4 1.4 0l2.2 2.2 2.2-2.2c.4-.4 1-.4 1.4 0 .4.4.4 1 0 1.4L47 62.4z"/></g></svg>