<svg xmlns="http://www.w3.org/2000/svg" viewBox="0 0 94 94" enable-background="new 0 0 94 94"><g fill="#0EAF81"><path d="M47 94C21.1 94 0 72.9 0 47S21.1 0 47 0s47 21.1 47 47-21.1 47-47 47zm0-92C22.2 2 2 22.2 2 47s20.2 45 45 45 45-20.2 45-45S71.8 2 47 2zM47.2 70.9c-.6 0-1.2-.2-1.8-.5l-5.6-3.3c-.8-.5-.4-.6-.2-.7 1.1-.4 1.3-.5 2.5-1.2.1-.1.3 0 .4 0l4.3 2.6c.2.1.4.1.5 0l16.8-9.7c.2-.1.3-.3.3-.5V38.3c0-.2-.1-.4-.3-.5l-16.8-9.7c-.2-.1-.4-.1-.5 0L30 37.8c-.2.1-.3.3-.3.5v19.4c0 .2.1.4.3.4l4.6 2.7c2.5 1.2 4-.2 4-1.7V39.9c0-.3.2-.5.5-.5h2.1c.3 0 .5.2.5.5V59c0 3.3-1.8 5.2-5 5.2-1 0-1.7 0-3.9-1.1l-4.4-2.5c-1.1-.6-1.8-1.8-1.8-3.1V38.3c0-1.3.7-2.4 1.8-3.1l16.8-9.7c1.1-.6 2.5-.6 3.5 0l16.8 9.7c1.1.6 1.8 1.8 1.8 3.1v19.4c0 1.3-.7 2.4-1.8 3.1l-16.8 9.7c-.3.2-.9.4-1.5.4zm13.5-19.1c0-3.6-2.4-4.6-7.6-5.3-5.2-.7-5.7-1-5.7-2.3 0-1 .4-2.4 4.3-2.4 3.4 0 4.7.7 5.2 3.1 0 .2.2.4.5.4h2.2c.1 0 .3-.1.4-.2.1-.1.1-.2.1-.4-.3-4-3-5.9-8.4-5.9-4.8 0-7.6 2-7.6 5.4 0 3.7 2.8 4.7 7.4 5.1 5.5.5 5.9 1.3 5.9 2.4 0 1.9-1.5 2.7-5 2.7-4.4 0-5.4-1.1-5.7-3.3 0-.2-.2-.4-.5-.4H44c-.3 0-.5.2-.5.5 0 2.8 1.5 6.2 8.9 6.2 5.3.1 8.3-2 8.3-5.6zm7.4-19.7v.3h.9V35h.4v-2.5h.9v-.3h-2.2zm2.6 2.9h.4v-2.4l.8 2.4h.4l.8-2.4V35h.4v-2.8H73l-.8 2.4-.8-2.4h-.5V35z"/></g></svg>