<svg xmlns="http://www.w3.org/2000/svg" viewBox="0 0 94 94" enable-background="new 0 0 94 94"><g fill="#0EAF81"><path d="M47 94C21.1 94 0 72.9 0 47S21.1 0 47 0s47 21.1 47 47-21.1 47-47 47zm0-92C22.2 2 2 22.2 2 47s20.2 45 45 45 45-20.2 45-45S71.8 2 47 2zM57.3 74.3c-.4 0-.8-.2-.9-.6l-6.7-17.1c-.1-.2-.1-.5 0-.8.1-.2.3-.4.5-.5 3.5-1.3 5.8-4.7 5.8-8.4 0-5-4.1-9-9-9s-9 4.1-9 9c0 3.7 2.3 7.1 5.8 8.4.2.1.4.3.5.5.1.2.1.5 0 .8l-6.9 17c-.2.5-.8.7-1.3.5-11.2-4.5-18.4-15.2-18.4-27.2 0-16.2 13.1-29.3 29.3-29.3s29.3 13.2 29.3 29.3c0 12.2-7.3 22.9-18.7 27.3-.1 0-.2.1-.3.1zm-5.5-17.6l6 15.3c10.1-4.3 16.5-14.1 16.5-25.1 0-15.1-12.3-27.4-27.4-27.4-15.1 0-27.4 12.3-27.4 27.4 0 10.9 6.4 20.7 16.3 25L42 56.7c-3.7-1.8-6.2-5.7-6.2-9.9 0-6.1 4.9-11 11-11s11 4.9 11 11c.2 4.3-2.2 8.1-6 9.9z"/></g></svg>