<svg xmlns="http://www.w3.org/2000/svg" viewBox="0 0 94 94" enable-background="new 0 0 94 94"><path fill="#0EAF81" d="M47 94C21.1 94 0 72.9 0 47S21.1 0 47 0s47 21.1 47 47-21.1 47-47 47zm0-92C22.2 2 2 22.2 2 47s20.2 45 45 45 45-20.2 45-45S71.8 2 47 2zM40.1 65c-2.8 0-4.7-.9-5.9-2.2-1.7-1.8-1.6-4.4-1.5-6.8.1-2.2.2-4.3-1-5.5-.9-1-2.7-1.5-5.3-1.5-.5 0-1-.5-1-1s.4-1 1-1c2.5 0 4.1-.5 5.1-1.4 1.3-1.3 1.2-3.4 1.2-5.7 0-2.5 0-5 1.7-6.8 1.2-1.2 3.1-1.8 5.7-1.8.5 0 1 .4 1 1s-.4 1-1 1c-2.1 0-3.5.4-4.3 1.2-1.1 1.2-1.1 3.2-1.1 5.4 0 2.6 0 5.2-1.8 7.1-.4.4-.8.7-1.3 1 .6.3 1.1.7 1.6 1.1 1.8 1.8 1.7 4.5 1.6 6.9-.1 2.1-.2 4.1.9 5.2.8.9 2.3 1.3 4.5 1.3.5 0 1 .7 1 1.2-.1.6-.5 1.3-1.1 1.3zM53.9 65c-.5 0-1-.7-1-1.2s.4-1.1 1-1.1c2.2 0 3.7-.5 4.5-1.4 1.1-1.2 1-3.2.9-5.3-.1-2.4-.2-5.1 1.6-6.9.4-.5 1-.8 1.6-1.1-.5-.3-1-.6-1.3-1-1.8-1.8-1.8-4.5-1.8-7.1 0-2.2 0-4.2-1.1-5.4-.8-.8-2.2-1.2-4.3-1.2-.5 0-1-.4-1-1s.4-1 1-1c2.6 0 4.5.6 5.7 1.8 1.7 1.7 1.7 4.3 1.7 6.8 0 2.3 0 4.4 1.2 5.7 1 1 2.6 1.4 5.1 1.4.5 0 1 .4 1 1 0 .5-.4 1-1 1-2.6 0-4.3.5-5.3 1.5-1.2 1.2-1.1 3.3-1 5.4.1 2.4.2 5.2-1.5 6.9-1.3 1.3-3.3 2.2-6 2.2z"/></svg>