<svg xmlns="http://www.w3.org/2000/svg" xmlns:xlink="http://www.w3.org/1999/xlink" viewBox="0 0 94 94" enable-background="new 0 0 94 94"><defs><circle id="SVGID_1_" cx="47" cy="47" r="46"/></defs><clipPath id="SVGID_2_"><use xlink:href="#SVGID_1_" overflow="visible"/></clipPath><g clip-path="url(#SVGID_2_)" fill="#0EAF81"><path d="M51 70.7c-.1 0-.2 0-.3-.1-.5-.2-.8-.7-.6-1.3 1.8-4.9 6-9.2 11.2-11.4-2.1-2.2-3.3-5.2-3.3-8.3 0-6.7 5.4-12.1 12.1-12.1 6.7 0 12.1 5.4 12.1 12.1 0 6.7-5.4 12.1-12.1 12.1-.5 0-1-.4-1-1s.4-1 1-1c5.6 0 10.1-4.5 10.1-10.1s-4.5-10.1-10.1-10.1S60 44 60 49.6c0 3.1 1.4 6 3.8 7.9.4.3.5.8.3 1.2-.1.2-.3.4-.6.5-5.4 1.8-9.8 6-11.6 10.8-.1.4-.5.7-.9.7zM89.3 78c-.5 0-1-.4-1-1 0-7.8-4.7-14.6-12-17.4-.5-.2-.8-.8-.6-1.3.2-.5.8-.8 1.3-.6 8 3.1 13.2 10.7 13.2 19.3 0 .5-.4 1-.9 1z"/></g><path fill="#0EAF81" d="M28.3 123.5c-17.9 0-32.4-14.4-32.4-32.2 0-13.3 8.2-25.1 20.5-30-3.6-3.5-5.7-8.3-5.7-13.4 0-10.3 8.3-18.6 18.6-18.6S48 37.7 48 48c0 5.6-2.5 10.6-6.3 14 11.6 5.2 19.1 16.5 19.1 29.3-.1 17.8-14.6 32.2-32.5 32.2zm1.1-92.2c-9.2 0-16.6 7.5-16.6 16.6 0 5.1 2.3 9.8 6.2 13 .4.3.5.8.3 1.2-.1.2-.3.4-.6.5C6.2 66.8-2.1 78.3-2.1 91.3c0 16.7 13.7 30.2 30.4 30.2 16.8 0 30.4-13.6 30.4-30.2 0-12.4-7.4-23.3-18.9-28-3 2-6.6 3.2-10.5 3.2-.5 0-1-.4-1-1 0-.5.4-1 1-1C38.6 64.6 46 57.2 46 48s-7.4-16.7-16.6-16.7z" clip-path="url(#SVGID_2_)"/><g clip-path="url(#SVGID_2_)"><path fill-rule="evenodd" clip-rule="evenodd" fill="#F2F2F2" d="M47 79.5s3.8 4.6 3.8 13.5"/><path fill="#0EAF81" d="M50.8 94c-.5 0-1-.4-1-1 0-8.5-3.5-12.9-3.5-12.9-.3-.4-.3-1 .1-1.4.4-.3 1-.3 1.4.1.2.2 4 4.9 4 14.2-.1.6-.5 1-1 1z"/></g><g clip-path="url(#SVGID_2_)"><path fill-rule="evenodd" clip-rule="evenodd" fill="#F2F2F2" d="M80.8 70c1 1.1 2.2 3.5 2.2 5.7"/><path fill="#0EAF81" d="M82.9 76c-.6 0-1-.1-1-.6 0-2.1-1.1-4-1.9-4.9-.4-.4-.3-.9.1-1.3.4-.3 1-.3 1.4.2 1.2 1.4 2.4 3.6 2.4 6 0 .5-.4.6-1 .6z"/></g><g clip-path="url(#SVGID_2_)"><path fill-rule="evenodd" clip-rule="evenodd" fill="#F2F2F2" d="M57.3 70c-1 1.1-2.3 4.8-2.3 4.8"/><path fill="#0EAF81" d="M55 75.8c-.1 0-.2 0-.3-.1-.5-.2-.8-.7-.6-1.3.1-.4 1.4-3.9 2.5-5.1.4-.4 1-.5 1.4-.1.4.4.5 1 .1 1.4-.6.7-1.6 3.1-2.1 4.5-.2.4-.6.7-1 .7z"/></g><path fill="#0EAF81" d="M47 94C21.1 94 0 72.9 0 47S21.1 0 47 0s47 21.1 47 47-21.1 47-47 47zm0-92C22.2 2 2 22.2 2 47s20.2 45 45 45 45-20.2 45-45S71.8 2 47 2z"/></svg>