<?xml version="1.0" encoding="utf-8"?>
<!-- Generator: Adobe Illustrator 18.1.0, SVG Export Plug-In . SVG Version: 6.00 Build 0)  -->
<!DOCTYPE svg PUBLIC "-//W3C//DTD SVG 1.1//EN" "http://www.w3.org/Graphics/SVG/1.1/DTD/svg11.dtd">
<svg version="1.1" id="Layer_1" xmlns="http://www.w3.org/2000/svg" xmlns:xlink="http://www.w3.org/1999/xlink" x="0px" y="0px"
	 viewBox="0 0 483.3 250.7" enable-background="new 0 0 483.3 250.7" xml:space="preserve">
<g>
	<g>
		<g>
			<defs>
				<circle id="SVGID_1_" cx="236.2" cy="122.4" r="57"/>
			</defs>
			<use xlink:href="#SVGID_1_"  overflow="visible" fill="#0EAF81"/>
			<clipPath id="SVGID_2_">
				<use xlink:href="#SVGID_1_"  overflow="visible"/>
			</clipPath>
			<g id="XMLID_4_" clip-path="url(#SVGID_2_)">
				<polygon fill="#098262" points="251.7,215.8 250.6,174.5 253.5,163.2 254.8,156.5 257.5,167.1 263,185.2 270,217.8 				"/>
				<polygon fill="#FFFFFF" points="262.3,95.4 262,98 259.3,97.2 259.5,95.9 				"/>
				<polygon fill="#098262" points="256.8,103.9 259.2,98.2 259.3,97.2 262,98 261.8,99.8 259.4,104 259,105.9 255.7,106.4
					256,105.6 				"/>
				<polygon fill="#FFFFFF" points="258.5,108.2 255.5,106.8 255.7,106.4 259,105.9 				"/>
				<polygon fill="#098262" points="262.3,95.4 259.5,95.9 259.6,94.6 260,91.9 260.1,91 262.3,95.4 				"/>
				<polygon fill="#098262" points="255.7,92.6 260,91.9 259.6,94.6 				"/>
				<polygon fill="#FFFFFF" points="256.4,96.4 259.5,95.9 259.3,97.2 				"/>
				<polygon fill="#FFFFFF" points="253.8,115.4 257.2,115 256.6,117.5 				"/>
				<polygon fill="#098262" points="256,105.6 253.5,103.8 256.8,103.9 				"/>
				<polygon fill="#FFFFFF" points="255.5,106.8 254.8,106.6 255.7,106.4 				"/>
				<polygon fill="#FFFFFF" points="252.6,124.7 250.4,128.1 252.6,124.7 				"/>
				<polygon fill="#FFFFFF" points="250.4,128.1 248,124.5 252.6,124.7 				"/>
				<polygon fill="#098262" points="248.5,111.6 253.4,111.9 252.9,113.2 252.1,115.1 				"/>
				<path fill="#098262" d="M252.9,113.2l-0.8,1.9L252.9,113.2z"/>
				<polygon fill="#FFFFFF" points="246.2,132.1 250.1,131.2 249.9,135 				"/>
				<linearGradient id="SVGID_3_" gradientUnits="userSpaceOnUse" x1="246.9289" y1="142.438" x2="247.5352" y2="140.7448">
					<stop  offset="0" style="stop-color:#068E64"/>
					<stop  offset="1" style="stop-color:#0EAF81"/>
				</linearGradient>
				<polygon fill="url(#SVGID_3_)" points="246.9,142.4 248.1,139.4 246.9,142.4 				"/>
				<path fill="#FFFFFF" d="M245.4,139.5l2.8-0.4l-0.1,0.2l-1.2,3C246.9,142.1,245.4,139.5,245.4,139.5z"/>
				<polygon fill="#098262" points="242.3,123.3 246.1,124.4 244.4,126.4 				"/>
				<polygon fill="#098262" points="243.2,130.9 242.7,132.6 240.9,131 				"/>
				<polygon fill="#098262" points="232.4,152.8 231.5,157 235,168.1 229.8,157.1 230.4,151.9 				"/>
				<path fill="#098262" d="M258.5,108.2l-2.2,10.8l-3.8,5.8l0,0l-4.6-0.2l2.4,3.6l-0.2,3.1l-3.9,0.9l3.7,2.9l-1.7,4.2l-2.8,0.4
					c0,0,1.5,2.6,1.5,2.9l0,0l-2.7,6.6l-8.1,5.5l-3.8-1.7l-2-0.9l0.2-1.8l0.3-2.4l4-0.8l7-11l0.9-3.4l0.5-1.7l1.2-4.5l1.7-2l4.2-4.9
					l1.8-4.3l0.8-1.9l0.6-1.4l1.4-3.5l0.6-1.5L258.5,108.2z M257.2,115l-3.3,0.4l2.8,2.1L257.2,115z"/>
				<polygon fill="#FFD58A" points="229.5,133.3 230.2,135.5 229.5,133.3 				"/>
				<polygon fill="#FFFFFF" points="229.5,133.3 232.2,134.1 230.2,135.5 				"/>
				<polygon fill="#FFFFFF" points="227.3,127.1 230.5,127.8 228.3,130.1 				"/>
				<polygon fill="#FFFFFF" points="225.3,112.9 230.3,113.3 225.5,115.7 225.5,115.7 				"/>
				<polygon fill="#FFFFFF" points="223.3,108.4 226.4,109.2 224.3,110.5 				"/>
				<path fill="#098262" d="M220.7,152l0.1,4l-1.9-3.3l-3-4.8l0.5-3.7l2-1.2C217.4,145,216,149.8,220.7,152z"/>
				<polygon fill="#FFFFFF" points="224,95.8 221,98.5 220.7,95.5 				"/>
				<polygon fill="#FFFFFF" points="216.8,87.3 221.3,87.9 217.9,89.1 				"/>
				<path fill="#FFFFFF" d="M220.7,152c1.7-4.2,2.5-7.3-2.2-9.4c-0.1,0.1-0.1,0.2-0.2,0.3l-2,1.2l-0.5,3.7l3,4.8l1.9,3.3L220.7,152z
					 M224.3,110.5l1.1,2.4l0.2,2.8l0,0l0.5,7.9l1.3,3.5l1.1,3l1.1,3.2l0.8,2.2l1.5,4.1l-0.9,8.1l-0.3,2.4l-0.2,1.8l-0.6,5.2l5.3,11
					l-3.6-11.2l0.9-4.2l3.8,1.7l8.1-5.5l2.7-6.6l1.2-3l0.1-0.2l1.7-4.2l0.3-3.7l0.2-3.1l2.2-3.4l3.8-5.8l2.2-10.8l0.5-2.3l0.4-1.9
					l2.4-4.2L262,98l0.3-2.6l0,0l-2.2-4.4l4.5,2.5l2.6,6.7l-2,11l-3.3,17l-6.2,24.4l-0.8,3.8l-1.3,6.7l-2.9,11.2l1.1,41.4l-45.9-4.9
					l1.1-6l3.1-5.6l1-1.5l1.3-7.6l0.8-3.2l2.4-7.9l1-9.3l-3.3-3.7l0-10l-2.2-7.3l2.4-8.2l0.7-17.7l-0.6-5.4l0.6-5.3l-2.1-9.7
					c0,0-2.3-4.8-2.3-5.4s4-11.4,4-11.4l3.2,1.5l1.1,1.8l2.6,4.5l0.2,1.8l0.3,3l0,0.3l-0.3,3.7l2.6,5.9L224.3,110.5L224.3,110.5z"/>
			</g>
		</g>
		<path fill="#FFFFFF" d="M236.2,187.2l-0.5,0c-17.3-0.1-33.5-7-45.7-19.3c-12.1-12.3-18.8-28.7-18.6-46
			c0.3-35.5,29.4-64.3,64.8-64.3l0.5,0c35.7,0.3,64.6,29.6,64.3,65.3C300.7,158.3,271.6,187.2,236.2,187.2z M236.2,58.5
			c-34.9,0-63.5,28.4-63.8,63.3c-0.1,17,6.4,33.1,18.3,45.3c12,12.2,27.9,18.9,45,19l0.5,0c34.9,0,63.5-28.4,63.8-63.3
			c0.3-35.2-28.1-64.1-63.3-64.3L236.2,58.5z"/>
	</g>
	<g>
		<g>
			<path fill="#FFFFFF" d="M52.5,15.5H42.4c-0.3,0-0.5,0.2-0.5,0.5v4.9c0,0.3,0.2,0.5,0.5,0.5h3.9v6.1c0,0-0.9,0.3-3.3,0.3
				c-2.9,0-6.9-1.1-6.9-9.9c0-8.9,4.2-10,8.1-10c3.4,0,4.9,0.6,5.8,0.9c0.3,0.1,0.6-0.2,0.6-0.5l1.1-4.8c0-0.1,0-0.3-0.2-0.4
				c-0.4-0.3-2.7-1.6-8.6-1.6c-6.7,0-13.7,2.9-13.7,16.7c0,13.8,7.9,15.9,14.6,15.9c5.5,0,8.9-2.4,8.9-2.4c0.1-0.1,0.2-0.3,0.2-0.4
				V16C53,15.7,52.8,15.5,52.5,15.5z"/>
			<path fill="#FFFFFF" d="M104.6,3.2c0-0.3-0.2-0.5-0.5-0.5h-5.7C98.2,2.7,98,3,98,3.2c0,0,0,11,0,11h-8.9v-11
				c0-0.3-0.2-0.5-0.5-0.5H83c-0.3,0-0.5,0.2-0.5,0.5V33c0,0.3,0.2,0.5,0.5,0.5h5.7c0.3,0,0.5-0.2,0.5-0.5V20.3H98
				c0,0,0,12.7,0,12.7c0,0.3,0.2,0.5,0.5,0.5h5.7c0.3,0,0.5-0.2,0.5-0.5V3.2z"/>
			<g>
				<g>
					<path fill="#FFFFFF" d="M63.3,7.1c0-2-1.6-3.7-3.7-3.7c-2,0-3.7,1.7-3.7,3.7c0,2,1.6,3.7,3.7,3.7C61.6,10.8,63.3,9.2,63.3,7.1z
						"/>
					<path fill="#FFFFFF" d="M62.9,26.7c0-0.8,0-13.7,0-13.7c0-0.3-0.2-0.5-0.5-0.5h-5.7c-0.3,0-0.5,0.3-0.5,0.5c0,0,0,16.5,0,19.7
						c0,0.6,0.4,0.8,0.8,0.8c0,0,2.4,0,5.1,0c0.6,0,0.7-0.3,0.7-0.8C62.9,31.6,62.9,27.5,62.9,26.7z"/>
				</g>
			</g>
			<path fill="#FFFFFF" d="M126.2,12.5h-5.6c-0.3,0-0.5,0.2-0.5,0.5v14.6c0,0-1.4,1-3.5,1c-2,0-2.6-0.9-2.6-2.9c0-2,0-12.7,0-12.7
				c0-0.3-0.2-0.5-0.5-0.5h-5.7c-0.3,0-0.5,0.2-0.5,0.5c0,0,0,7.8,0,13.7c0,5.9,3.3,7.4,7.8,7.4c3.7,0,6.7-2.1,6.7-2.1
				s0.1,1.1,0.2,1.2c0.1,0.1,0.2,0.3,0.4,0.3l3.6,0c0.3,0,0.5-0.2,0.5-0.5l0-20C126.7,12.8,126.5,12.5,126.2,12.5z"/>
			<path fill="#FFFFFF" d="M141.7,11.9c-3.2,0-5.4,1.4-5.4,1.4V3.2c0-0.3-0.2-0.5-0.5-0.5h-5.7c-0.3,0-0.5,0.2-0.5,0.5V33
				c0,0.3,0.2,0.5,0.5,0.5c0,0,4,0,4,0c0.2,0,0.3-0.1,0.4-0.3c0.1-0.2,0.2-1.4,0.2-1.4s2.3,2.2,6.7,2.2c5.2,0,8.2-2.6,8.2-11.8
				C149.6,13.1,144.9,11.9,141.7,11.9z M139.4,28.6c-2-0.1-3.3-0.9-3.3-0.9v-9.4c0,0,1.3-0.8,2.9-0.9c2-0.2,4,0.4,4,5.3
				C143.1,27.7,142.2,28.7,139.4,28.6z"/>
			<path fill="#FFFFFF" d="M79.2,12.5H75c0,0,0-5.6,0-5.6c0-0.2-0.1-0.3-0.4-0.3h-5.8c-0.2,0-0.3,0.1-0.3,0.3v5.8
				c0,0-2.9,0.7-3.1,0.8c-0.2,0.1-0.3,0.2-0.3,0.5v3.7c0,0.3,0.2,0.5,0.5,0.5h3c0,0,0,3.8,0,8.8c0,6.5,4.6,7.2,7.7,7.2
				c1.4,0,3.1-0.5,3.4-0.6c0.2-0.1,0.3-0.2,0.3-0.4l0-4c0-0.3-0.2-0.5-0.5-0.5c-0.2,0-0.9,0.1-1.5,0.1c-2.1,0-2.8-1-2.8-2.2
				c0-1.3,0-8.4,0-8.4h4.3c0.3,0,0.5-0.2,0.5-0.5V13C79.7,12.7,79.5,12.5,79.2,12.5z"/>
		</g>
		<g>

				<rect x="94.5" y="67" transform="matrix(0.8801 0.4748 -0.4748 0.8801 48.8932 -58.5298)" fill="#FFFFFF" width="91.7" height="1"/>
			<g>
				<circle fill="#FFFFFF" cx="100.2" cy="45.9" r="3.8"/>
			</g>
			<g>
				<circle fill="#FFFFFF" cx="180.5" cy="89.2" r="3.8"/>
			</g>
		</g>
		<g>

				<rect x="330.8" y="21.7" transform="matrix(0.4747 0.8801 -0.8801 0.4747 233.4823 -256.1388)" fill="#FFFFFF" width="1" height="91.7"/>
			<g>
				<circle fill="#FFFFFF" cx="371.5" cy="45.9" r="3.8"/>
			</g>
			<g>
				<circle fill="#FFFFFF" cx="291.2" cy="89.2" r="3.8"/>
			</g>
		</g>
		<g>

				<rect x="139.8" y="130.7" transform="matrix(0.4743 0.8803 -0.8803 0.4743 229.1871 -30.74)" fill="#FFFFFF" width="1" height="91.7"/>
			<g>
				<circle fill="#FFFFFF" cx="100.2" cy="198.2" r="3.8"/>
			</g>
			<g>
				<circle fill="#FFFFFF" cx="180.5" cy="154.9" r="3.8"/>
			</g>
		</g>
		<g>
			<rect x="93" y="124.6" fill="#FFFFFF" width="79" height="1"/>
			<g>
				<circle fill="#FFFFFF" cx="93.3" cy="124.8" r="3.8"/>
			</g>
			<g>
				<circle fill="#FFFFFF" cx="171.7" cy="124.8" r="3.8"/>
			</g>
		</g>
		<g>

				<rect x="286.1" y="176" transform="matrix(0.8801 0.4748 -0.4748 0.8801 123.6236 -136.4538)" fill="#FFFFFF" width="91.7" height="1"/>
			<g>
				<circle fill="#FFFFFF" cx="372.2" cy="198.2" r="3.8"/>
			</g>
			<g>
				<circle fill="#FFFFFF" cx="291.8" cy="154.9" r="3.8"/>
			</g>
		</g>
		<g>
			<rect x="300" y="124.6" fill="#FFFFFF" width="79" height="1"/>
			<g>
				<circle fill="#FFFFFF" cx="379.1" cy="124.8" r="3.8"/>
			</g>
			<g>
				<circle fill="#FFFFFF" cx="300.6" cy="124.8" r="3.8"/>
			</g>
		</g>
		<g>
			<path fill="#FFFFFF" d="M63.7,220.2c0-3.5,2.5-5.9,7.2-5.9c2.8,0,5.1,0.9,6.4,1.8c0.2,0.1,0.5,0.4,0.3,1c-0.2,0.6-0.7,1.5-1,2.1
				c-0.2,0.3-0.7,0.3-0.9,0.2c-0.9-0.5-2.4-1.2-3.7-1.4c-0.3,0-0.7-0.1-1,0c-1.2,0-2.2,0.4-2.5,1.3c-0.1,0.2-0.1,0.4-0.1,0.5
				c0,1.2,1.6,1.6,3.6,2c3.7,0.6,6.6,1.7,6.6,5.6c0,3.3-2.6,6.2-7.7,6.1c-3.3-0.1-5.7-1.2-7-2.3c0,0-0.5-0.5-0.3-1.1
				c0.3-0.8,0.8-1.6,1.2-2.1c0.2-0.3,0.8-0.3,1.1-0.2c1,0.7,2.8,1.7,4.8,1.8c0.2,0,0.3,0,0.5,0c1.8,0,2.9-0.7,2.9-1.9
				c0-1-1.4-1.6-3.7-2C66.6,225,63.7,223.8,63.7,220.2"/>
			<path fill="#FFFFFF" d="M96.4,225.2c-2.5,0-4.9,0.7-4.9,2.7c0,1.6,1.3,2.4,3.1,2.3c1.7-0.2,3-0.9,3.6-1.9
				c0.2-0.4,0.2-1.7,0.2-2.3c0-0.1-0.3-0.4-0.4-0.4C97.5,225.3,97.1,225.2,96.4,225.2 M88,217.2c1.2-1.1,3.5-2.7,7.3-2.6
				c5,0.1,7.6,2.4,7.8,8c0.1,2.3-0.1,8.7-0.1,10.3c0,0.2-0.1,0.4-0.4,0.4c-0.8,0-2.7,0-3.6,0c-0.4,0-0.5-0.2-0.5-0.5
				c0-0.1,0-0.6,0-0.9c0-0.2-0.2-0.2-0.2-0.1c-1.2,1.2-3.1,1.8-5.1,1.8c-3.1,0-6.1-1.8-6.1-5.4c0-3.7,2.6-5.5,5.5-5.9
				c1.8-0.3,3.9,0,5.5,0.6c0.1,0,0.3,0,0.3-0.2c0-0.5,0-1.4-0.1-1.8c-0.2-1.1-1.1-1.9-3-2.2c-0.4,0-0.8-0.1-1.2,0
				c-1.5,0.1-3.3,1.3-4.1,1.7c-0.2,0.1-0.5,0-0.5-0.1c-0.4-0.6-1.5-2.2-1.6-2.5C87.7,217.5,87.8,217.3,88,217.2z"/>
			<path fill="#FFFFFF" d="M104.7,224c0-5.1,3.5-9.4,9.3-9.5c3.6,0,6.2,1.6,6.7,2.4c0.1,0.2,0,0.3,0,0.5c-0.3,0.6-1.1,1.9-1.6,2.6
				c-0.2,0.3-0.5,0-0.8-0.2c-0.8-0.5-2.4-1.2-3.9-1.2c-2.8,0-4.9,1.9-4.8,5.4c0,3.4,2,5.2,4.9,5.3c1.5,0,2.9-0.8,3.7-1.5
				c0.2-0.2,0.5-0.1,0.8,0.1c0.5,0.6,1.3,1.4,1.8,2c0.3,0.3,0.1,0.7,0,0.8c-1.2,1.5-3.4,2.7-6.5,2.8
				C107.9,233.6,104.8,229.2,104.7,224"/>
			<path fill="#FFFFFF" d="M134.8,233.3c0.3,0,3.4-0.5,4.4-0.7c0.2-0.1,0.3-0.3,0.2-0.5c-0.5-0.8-2-3.1-3.4-5.2
				c-1.4-1.9-2.8-3.6-3.3-4.2c-0.1-0.2-0.1-0.3,0-0.4c0.9-0.9,4.6-4.5,6-6c0.5-0.6,0.2-0.8-0.2-1c-0.9-0.3-2.3-0.6-3.1-0.8
				c-0.3-0.1-0.8,0-1.1,0.3c-1.4,1.3-5.7,5.6-6.9,6.9c-0.2,0.2-0.4,0.2-0.4-0.2c0-2.5-0.1-13-0.1-14.7c0-0.2-0.3-0.4-0.4-0.4
				c-0.8,0-2.8-0.1-3.6,0c-0.2,0-0.4,0.3-0.5,0.4c-0.2,2.8,0.1,23.1,0.2,26c0,0.2,0.2,0.4,0.4,0.4c0.8,0,2.8,0,3.7,0
				c0.5,0,0.5-0.3,0.5-0.3l0.1-5.5c0,0,0-0.2,0.1-0.3c0.3-0.3,1.2-1.3,1.6-1.7c0.1-0.1,0.2-0.1,0.3,0c0.5,0.6,1.7,2.6,2.9,4.4
				c1.1,1.6,2.1,3.1,2.2,3.2C134.4,233.3,134.6,233.3,134.8,233.3z"/>
			<path fill="#FFFFFF" d="M81.2,233.3c0.3,0,2.4,0,3.3,0c0.3,0,0.5-0.2,0.5-0.4c0.2-4,0.1-23,0-26c0-0.3-0.1-0.4-0.3-0.4
				c-0.8-0.1-3.1-0.1-3.8,0.1c-0.1,0-0.2,0.1-0.2,0.3c-0.2,7.7-0.1,25.6,0,25.9C80.6,233.1,80.8,233.3,81.2,233.3z"/>
			<path fill="#FFFFFF" d="M57.1,224.7c-0.5-1.4-2-2.2-3.4-1.7l-3.3,1.2l-2.5-7.2l3.3-1.2c1.4-0.5,2.2-2,1.7-3.4
				c-0.5-1.4-2-2.2-3.4-1.7l-3.3,1.2l-1.2-3.3c-0.5-1.4-2-2.2-3.4-1.7c-1.4,0.5-2.2,2-1.7,3.4l1.2,3.3l-7.2,2.5l-1.2-3.3
				c-0.5-1.4-2-2.2-3.4-1.7c-1.4,0.5-2.2,2-1.7,3.4l1.2,3.3l-3.3,1.2c-1.4,0.5-2.2,2-1.7,3.4c0.5,1.4,2,2.2,3.4,1.7l3.3-1.2l2.5,7.2
				l-3.3,1.2c-1.4,0.5-2.2,2-1.7,3.4c0.5,1.4,2,2.2,3.4,1.7l3.3-1.2l1.2,3.3c0.5,1.4,2,2.2,3.4,1.7c1.4-0.5,2.2-2,1.7-3.4l-1.2-3.3
				l7.2-2.5l1.2,3.3c0.5,1.4,2,2.2,3.4,1.7c1.4-0.5,2.2-2,1.7-3.4l-1.2-3.3l3.3-1.2C56.8,227.7,57.6,226.1,57.1,224.7z M38,228.5
				l-2.5-7.2l7.2-2.5l2.5,7.2L38,228.5z"/>
		</g>
		<path fill="#FFFFFF" d="M36.5,119.4l3.3,9.3h-9.6l3.3-9.3c0.7-1.9,1.5-5.7,1.5-5.7H35C35,113.6,35.8,117.5,36.5,119.4z M69,90.6
			v69H0v-69H69z M52,136.6h-0.4c-0.9,0-1.3,0-1.7-0.9l-11.3-28.1h-7.3L20,135.7c-0.3,0.9-0.7,0.9-1.7,0.9H17v5h4.7
			c2.7,0,3.6-0.2,4.4-2.4l2.4-5.6h12.9l2.4,5.6c0.9,2.2,1.8,2.4,4.5,2.4H52V136.6z"/>
	</g>
	<g id="Page-1">
		<g id="Assets" transform="translate(-1618.000000, -84.000000)">
			<g id="Trello-Logo" transform="translate(128.000000, 20.000000)">
				<g id="Trello-Logo---White" transform="translate(1440.000000, 0.000000)">
					<g id="Logo" transform="translate(50.000000, 64.000000)">
						<path id="Type" fill="#FFFFFF" d="M421.3,26.7c-1.9,0.8-3.4,3.5-5.7,5c-0.1,0.1-0.3,0.1-0.4,0.1c-0.2,0-0.4-0.2-0.4-1
							c0-3,1-4.4,1.8-6.5c2.8-7.3,7.6-13.5,11.9-20.4c0.3-0.5,0.5-1.1,0.5-1.7c0-0.5-0.2-1-0.4-1.5c-0.2-0.4-1-0.8-2-0.8
							c-0.5,0-1,0-1.6,0c-2.2,0-2.7,3.3-3.2,4.1c-3.6,6.1-7.7,13.5-9.8,18.8c-0.5,1.2-1,2.4-1.3,3.6c-2.1,0.6-3.6,3.5-6.1,5.1
							c-0.1,0.1-0.3,0.1-0.4,0.1c-0.2,0-0.4-0.2-0.4-1c0-3,1-4.4,1.8-6.5c2.8-7.3,7.6-13.5,11.9-20.4c0.3-0.5,0.5-1.1,0.5-1.7
							c0-0.5-0.2-1-0.4-1.5c-0.2-0.4-1-0.8-2-0.8c-0.5,0-1,0-1.6,0c-2.2,0-2.7,3.3-3.2,4.1c-3.6,6.1-7.7,13.5-9.8,18.8
							c-0.2,0.4-0.3,0.9-0.5,1.3l0,0c-0.1,0-0.1,0.1-0.2,0.1c-2.4,1.4-4.5,4-7.4,5.7c-0.6,0.3-2.3,1.6-3.8,1.6
							c-0.3,0-0.6-0.1-0.9-0.2c-0.4-0.2-0.9-1.1-0.9-1.4c0-0.2,0-0.3,0.5-0.6c4.2-2.5,7.6-6.1,10.6-9.8c1.1-1.3,2.5-4,2.5-5.9
							c0-1.2-0.4-2.7-1.9-3.2c-1-0.4-2.2-0.6-3.2-0.6c-2.5,0-4.4,1.1-5.4,2.2c-1.1,1.1-2.1,2.3-3.1,3.5c-1-0.9-2.4-1.2-3.8-1.2
							c-1.6,0-4.5,2-6.1,3.1c-0.2,0.2-0.4,0.3-0.5,0.3c0,0-0.1,0-0.1-0.1c0,0,0.1-0.5,0.1-1.2c0-0.7-0.1-1.5-0.8-2.6
							c-0.1-0.2-1-0.8-2-0.8c-1.3,0-2.5,0.6-2.5,1.3c0,0.5,0.4,0.7,0.4,1.1c0,0.2-0.2,1.3-0.5,2.4c-0.8,3.1-1.8,6.1-2.9,9.1
							c-0.6,1.7-2.5,3.1-2.5,5c0,0.6,0.4,1.3,0.9,1.9c0.9,1,1.4,1.3,2.1,1.3c0.3,0,0.7-0.1,1-0.4c0.7-0.6,1.1-1.2,1.3-2.1
							c1.2-5.6,4.8-9.4,8.8-12c1.3-0.9,3.1-1.8,3.4-1.8c0.2,0,0.6,0.1,1,0.2l0,0c-1.1,1.8-2,3.7-2.6,5.7c-0.2,0.7-0.3,1.3-0.3,2
							c0,1.1,0.2,2.2,0.6,3.3c0.5,1.5,1.4,2.9,2.6,3.5c2.2,1.1,3.8,1.8,5.2,1.8c0.8,0,1.4-0.1,2.1-0.5c3.1-1.8,5.1-3.1,6.4-4.3
							c0,1.2,0.3,1.9,1.1,2.8c0.9,0.9,2.2,1.7,4,2.1c0.3,0,0.6,0.1,0.9,0.1c2,0,4-1.6,5.5-3.3l0,0c0.2,0.4,0.4,0.7,0.8,1.1
							c0.9,0.9,2.2,1.7,4,2.1c0.3,0,0.6,0.1,0.9,0.1c2.4,0,4.6-2.3,6.2-4.1c0.5,1.1,2,2.1,3.7,3c0.5,0.2,1,0.4,1.6,0.4
							c2,0,3.5-1.7,4.7-2.9c3-3.2,4.6-7.2,5.8-12.3c0.1-0.4,0.2-0.5,0.4-0.5c0.5,0,1.1,0,1.8-0.1c1.3-0.2,2.3-0.6,3.5-0.8
							c0.7-0.1,0.6-0.4,1.3-0.6c0.5-0.2,0.9-0.4,0.9-0.9c0-0.8-1.5-1.7-3.7-1.7c-1.8,0-2.8,0.1-3.5,0.1c-1.1,0-1.4-0.3-2.1-2.2
							c0,0,0.7,1.9,0,0c-0.1-0.4-0.3-0.6-0.7-1c-1-0.9-2.2-1.1-3.2-1.1c-2.4,0-4.4,2.4-5.9,4.5c-0.3,0.5-0.8,0.9-1.1,1.4
							C423.4,19.8,421.5,23.1,421.3,26.7L421.3,26.7z M360.4,10.5c1.2,0,1.9-0.1,2-0.1c0.1,0,0.2,0,0.2,0.2c0,0.1,0,0.2-0.4,1
							c-2.9,6.2-4.9,12.6-6.7,19.6c0,0.2-0.2,0.9-0.2,1.6c0,0.7,0.2,1.4,0.9,1.8c1.3,0.8,2.3,1.1,3.1,1.1c1,0,1.6-0.7,1.6-1.8
							c0-1,0-2,0.2-2.7c1.3-7,3.3-12.5,6.4-18.2c1.5-2.7,1.7-2.9,1.7-3.1c0-0.1,0-0.2-0.1-0.4c1.9-0.4,4.2-0.7,6.3-0.7
							c0.2,0,1.2,0.3,1.3,0.5c0.3,0.3,0.7,0.7,1.2,0.7c0.5,0,1.3-0.3,1.6-0.5c0.7-0.5,1-1,1-1.9c0-0.8-3-2.8-5.1-2.8
							c-2.6,0-4.9,0.3-7.1,0.8c-1,0.2-4.4,0.7-6.9,0.7c-2.4,0-2.2-0.3-3.2-0.3c-0.6,0-0.9,0.3-1.1,0.5s-0.4,1.2-0.4,2
							c0,0.4,0,0.8,0.2,1C357.6,10.3,359,10.5,360.4,10.5C360.4,10.5,359,10.5,360.4,10.5z M395.7,14.3c0,0.4-0.1,0.7-0.7,1.6
							c-0.6,0.9-0.3,0.9-1,1.9c-1.4,1.9-3.1,3.7-5.3,5.8c-0.6,0.6-0.7,0.6-0.8,0.6c0,0-0.1,0-0.1-0.1c0-0.1,0-0.3,0.5-1.3
							c1.5-3.1,3.3-5.1,5.3-7.1c1.1-1.1,1.8-1.5,2-1.5C395.6,14.1,395.7,14.1,395.7,14.3C395.7,14.3,395.7,14.1,395.7,14.3z
							 M432.3,15.6c0,0,0.1,0,0.1,0.1c0,0.1,0.1,0.3,0.4,0.5c0.2,0.1,0.2,0.8,0.2,1.3c0,4.6-2.6,8.4-5.2,12.3c-0.6,0.9-0.9,1-1.2,1
							c-0.2,0-0.6-0.6-0.8-1c-0.2-0.5-0.2-1.1-0.2-1.4c0-3.7,3.5-9.2,5.9-12.3C431.9,15.6,432.2,15.6,432.3,15.6
							C432.3,15.6,432.2,15.6,432.3,15.6z"/>
						<path fill="#FFFFFF" d="M349,9.4c0-2.1-1.7-3.8-3.8-3.8h-21.5c-2.1,0-3.8,1.7-3.8,3.8v21.5c0,2.1,1.7,3.8,3.8,3.8h21.5
							c2.1,0,3.8-1.7,3.8-3.8V9.4z M332,28.1c0,1,0.3,3.5-0.7,3.5h-5.6c-1,0-1.7-2.5-1.7-3.5V11c0-1,0.7-1.3,1.7-1.3h5.6
							c1,0,0.7,0.3,0.7,1.3V28.1z M345,20.8c0,1-0.8,1.8-1.8,1.8h-5.4c-1,0-1.8-0.8-1.8-1.8v-9.4c0-1,0.8-1.8,1.8-1.8h5.4
							c1,0,1.8,0.8,1.8,1.8V20.8z"/>
					</g>
				</g>
			</g>
		</g>
	</g>
	<g id="OvHZFw.tif">
		<g>
			<path fill-rule="evenodd" clip-rule="evenodd" fill="#FFFFFF" d="M406.9,214.9c-2.8,4.6-5.4,9.1-8.1,13.6c-0.7,1.1-1,2.1-0.5,3.5
				c1.5,4-0.6,7.9-4.7,9c-3.8,1-7.5-1.5-8.3-5.6c-0.7-3.6,2.1-7.2,6.1-7.7c0.3,0,0.7-0.1,1.2-0.1c2-3.3,4-6.6,6.1-10.2
				c-3.8-3.8-6.1-8.2-5.6-13.7c0.4-3.9,1.9-7.3,4.7-10c5.4-5.3,13.5-6.1,19.8-2.1c6.1,3.9,8.8,11.5,6.5,18c-1.8-0.5-3.6-1-5.6-1.5
				c0.7-3.6,0.2-6.8-2.2-9.6c-1.6-1.8-3.7-2.8-6-3.1c-4.7-0.7-9.3,2.3-10.7,6.9C398.1,207.4,400.5,211.6,406.9,214.9z"/>
			<path fill-rule="evenodd" clip-rule="evenodd" fill="#FFFFFF" d="M414.8,209.4c1.9,3.4,3.9,6.9,5.9,10.4c9.9-3.1,17.3,2.4,20,8.3
				c3.2,7.1,1,15.5-5.3,19.8c-6.5,4.5-14.8,3.7-20.5-2c1.5-1.2,2.9-2.5,4.5-3.8c5.7,3.7,10.7,3.5,14.4-0.9c3.2-3.7,3.1-9.3-0.2-12.9
				c-3.7-4.2-8.8-4.3-14.8-0.3c-2.5-4.5-5.1-8.9-7.5-13.4c-0.8-1.5-1.7-2.4-3.6-2.7c-3.1-0.5-5.1-3.2-5.2-6.2
				c-0.1-2.9,1.6-5.6,4.3-6.6c2.7-1,5.8-0.2,7.6,2.1c1.5,1.9,1.9,4,1.2,6.3C415.4,208,415.1,208.6,414.8,209.4z"/>
			<path fill-rule="evenodd" clip-rule="evenodd" fill="#FFFFFF" d="M419.4,237.4c-3.9,0-7.8,0-11.9,0c-1.1,4.7-3.6,8.5-7.9,10.9
				c-3.3,1.9-6.9,2.5-10.6,1.9c-7-1.1-12.7-7.4-13.2-14.5c-0.6-8,4.9-15.1,12.3-16.7c0.5,1.8,1,3.7,1.5,5.5
				c-6.7,3.4-9.1,7.8-7.2,13.2c1.7,4.8,6.4,7.4,11.5,6.4c5.2-1,7.9-5.4,7.5-12.3c5,0,9.9-0.1,14.9,0c1.9,0,3.4-0.2,4.9-1.9
				c2.4-2.8,6.8-2.6,9.4,0.1c2.6,2.7,2.5,7.1-0.3,9.7c-2.7,2.5-7,2.4-9.5-0.3C420.3,238.8,419.9,238.1,419.4,237.4z"/>
		</g>
	</g>
	<g id="outlines_4_">
		<g>
			<path fill="#FFFFFF" d="M431.2,118.6l-2.5-5.2c-0.6-1.2-1.2-2.6-1.4-3.3l0,0c0.1,0.9,0.1,2.1,0.1,3.1l0.1,5.4h-1.8v-11.1h2.1
				l2.7,5.4c0.5,1,1,2.3,1.1,2.9l0,0c0-0.6-0.2-2.2-0.2-3.2l0-5.1h1.8v11.1H431.2z"/>
			<path fill="#FFFFFF" d="M436.4,115v0.1c0,1.1,0.4,2.3,2,2.3c0.8,0,1.4-0.3,2-0.8l0.7,1.1c-0.9,0.7-1.8,1.1-2.9,1.1
				c-2.3,0-3.7-1.7-3.7-4.3c0-1.4,0.3-2.4,1-3.2c0.7-0.8,1.5-1.1,2.5-1.1c0.8,0,1.5,0.2,2.2,0.8c0.7,0.6,1.1,1.6,1.1,3.5v0.4H436.4z
				 M438,111.6c-1,0-1.5,0.8-1.5,2.1h3C439.4,112.4,438.9,111.6,438,111.6z"/>
			<path fill="#FFFFFF" d="M450.7,118.6H449l-1-3.7c-0.3-1-0.5-2.2-0.5-2.2h0c0,0-0.1,0.8-0.5,2.3l-1,3.7h-1.7l-2.2-8l1.8-0.2
				l0.9,3.9c0.2,1,0.4,2.1,0.4,2.1h0c0,0,0.2-1.1,0.5-2.2l1-3.8h1.7l0.9,3.7c0.3,1.3,0.5,2.3,0.5,2.3h0c0,0,0.2-1.2,0.4-2.2l0.8-3.8
				h1.8L450.7,118.6z"/>
			<path fill="#FFFFFF" d="M429.8,132.9l-1-1.7c-0.8-1.4-1.3-2.1-1.9-2.7c-0.2-0.2-0.4-0.3-0.7-0.3v4.8h-1.8v-11.1h3.4
				c2.5,0,3.6,1.4,3.6,3.2c0,1.6-1,3.1-2.8,3.1c0.4,0.2,1.1,1.3,1.7,2.2l1.6,2.7H429.8z M427.2,123.2h-1v3.5h0.9
				c1,0,1.5-0.1,1.8-0.5c0.3-0.3,0.5-0.8,0.5-1.3C429.5,123.8,428.8,123.2,427.2,123.2z"/>
			<path fill="#FFFFFF" d="M434.4,129.3v0.1c0,1.1,0.4,2.3,2,2.3c0.8,0,1.4-0.3,2-0.8l0.7,1.1c-0.9,0.7-1.8,1.1-2.9,1.1
				c-2.3,0-3.7-1.7-3.7-4.3c0-1.4,0.3-2.4,1-3.2c0.7-0.8,1.5-1.1,2.5-1.1c0.8,0,1.5,0.2,2.2,0.8c0.7,0.6,1.1,1.6,1.1,3.5v0.4H434.4z
				 M436,125.9c-1,0-1.5,0.8-1.5,2.1h3C437.4,126.7,436.8,125.9,436,125.9z"/>
			<path fill="#FFFFFF" d="M442.6,133c-1.8,0-1.8-1.6-1.8-2.3v-6.9c0-1.1,0-1.7-0.2-2.4l1.8-0.4c0.1,0.5,0.1,1.2,0.1,2.2v6.9
				c0,1.1,0,1.3,0.2,1.5c0.1,0.1,0.4,0.2,0.6,0.1l0.3,1.1C443.3,133,443,133,442.6,133z"/>
			<path fill="#FFFFFF" d="M445.6,123.5c-0.6,0-1.1-0.5-1.1-1.2c0-0.7,0.5-1.2,1.2-1.2c0.6,0,1.2,0.5,1.2,1.2
				C446.8,123,446.3,123.5,445.6,123.5z M444.8,132.9v-8l1.8-0.3v8.3H444.8z"/>
			<path fill="#FFFFFF" d="M451.6,133.1c-2.2,0-3.5-1.6-3.5-4.2c0-3,1.8-4.4,3.6-4.4c0.9,0,1.5,0.2,2.2,0.9l-0.9,1.2
				c-0.5-0.4-0.9-0.6-1.4-0.6c-0.6,0-1,0.3-1.3,0.8c-0.2,0.5-0.3,1.3-0.3,2.3c0,1.1,0.2,1.8,0.5,2.2c0.3,0.3,0.6,0.5,1.1,0.5
				c0.6,0,1.1-0.3,1.6-0.8l0.8,1.1C453.5,132.7,452.7,133.1,451.6,133.1z"/>
			<path fill="#FFFFFF" d="M455.7,133c-0.7,0-1.2-0.5-1.2-1.2c0-0.7,0.5-1.2,1.2-1.2c0.7,0,1.2,0.5,1.2,1.2
				C456.9,132.5,456.4,133,455.7,133z M455.7,130.9c-0.5,0-0.9,0.4-0.9,1s0.4,1,0.9,1c0.5,0,0.9-0.4,0.9-1S456.2,130.9,455.7,130.9z
				 M455.9,132.5c-0.1-0.1-0.1-0.1-0.1-0.2c-0.1-0.2-0.2-0.3-0.2-0.3c0,0,0,0,0,0v0.6h-0.3v-1.3h0.5c0.2,0,0.4,0.2,0.4,0.4
				c0,0.2-0.1,0.4-0.3,0.4c0,0,0,0,0.1,0.1c0.1,0.1,0.3,0.5,0.3,0.5H455.9z M455.8,131.4c0,0-0.1,0-0.2,0h-0.1v0.4h0.1
				c0.1,0,0.2,0,0.2,0c0,0,0.1-0.1,0.1-0.1C455.9,131.5,455.9,131.4,455.8,131.4z"/>
		</g>
		<g>
			<path fill="#FFFFFF" d="M436.7,155.8c-19,0-34.5-10.4-37.7-25.4c-1.9-8.9,0.6-18.2,7.2-26.2c6.5-8,16.3-13.7,27.4-16.1
				c3.8-0.8,7.6-1.2,11.3-1.2c19,0,34.5,10.4,37.7,25.4c4,18.3-11.5,37.3-34.6,42.3C444.3,155.3,440.5,155.8,436.7,155.8z
				 M444.9,87.7c-3.7,0-7.4,0.4-11.1,1.2c-11,2.4-20.5,8-26.9,15.8c-6.4,7.8-8.9,16.8-7,25.5c3.2,14.5,18.3,24.7,36.9,24.7
				c3.7,0,7.4-0.4,11.1-1.2c22.6-4.9,37.8-23.4,33.9-41.3C478.6,97.9,463.5,87.7,444.9,87.7z"/>
			<path fill="#FFFFFF" d="M445.1,151.8c-16.5,0-30-13.5-30-30c0-16.5,13.5-30,30-30c16.5,0,30,13.5,30,30
				C475.1,138.3,461.6,151.8,445.1,151.8z M445.1,92.6c-16.1,0-29.1,13.1-29.1,29.1s13.1,29.1,29.1,29.1c16.1,0,29.1-13.1,29.1-29.1
				S461.1,92.6,445.1,92.6z"/>
			<path fill="#FFFFFF" d="M439.3,143.4c-12.5,0-22.6-10.1-22.6-22.6c0-12.5,10.1-22.6,22.6-22.6c12.5,0,22.6,10.1,22.6,22.6
				C461.9,133.3,451.8,143.4,439.3,143.4z M439.3,99.1c-12,0-21.7,9.8-21.7,21.7c0,12,9.8,21.7,21.7,21.7c12,0,21.7-9.8,21.7-21.7
				C461.1,108.8,451.3,99.1,439.3,99.1z"/>
		</g>
	</g>
</g>
</svg>
