<?xml version="1.0" encoding="utf-8"?>
<!-- Generator: Adobe Illustrator 18.1.0, SVG Export Plug-In . SVG Version: 6.00 Build 0)  -->
<!DOCTYPE svg PUBLIC "-//W3C//DTD SVG 1.1//EN" "http://www.w3.org/Graphics/SVG/1.1/DTD/svg11.dtd">
<svg version="1.1" id="Layer_1" xmlns="http://www.w3.org/2000/svg" xmlns:xlink="http://www.w3.org/1999/xlink" x="0px" y="0px"
	 viewBox="0 0 178 322.1" enable-background="new 0 0 178 322.1" xml:space="preserve">
<g>
	<defs>
		<rect id="SVGID_1_" y="0" width="178" height="322.1"/>
	</defs>
	<clipPath id="SVGID_2_">
		<use xlink:href="#SVGID_1_"  overflow="visible"/>
	</clipPath>
	<g id="XMLID_2_" clip-path="url(#SVGID_2_)">
		<linearGradient id="SVGID_3_" gradientUnits="userSpaceOnUse" x1="152.6342" y1="350.3676" x2="129.7645" y2="204.8258">
			<stop  offset="0" style="stop-color:#068E64"/>
			<stop  offset="1" style="stop-color:#0EAF81"/>
		</linearGradient>
		<polygon fill="url(#SVGID_3_)" points="162.8,291.1 182.2,380.8 131.8,375.4 128.7,261.7 136.6,230.8 140.3,212.4 147.7,241.6 		
			"/>
		<path fill="#0EAF81" d="M73,199.7L71.4,214l14.5,30.3l-9.8-30.7l2.5-11.5l10.4,4.6l22.1-15l7.3-18.2l3.4-8.4l0.2-0.6l4.7-11.5
			l0.7-10.3l0.6-8.5l16.5-25.2l6-29.6l0,0l1.2-6.1l0-0.1l1-5.1l6.7-11.7l0.5-4.8l0.2,0.1l0.6-7.3l0,0l-6.1-12.1l12.3,6.9l7.2,18.6
			L147.9,161l-7.6,51.4l0,0l-3.6,18.3l-7.9,30.9l3.1,113.8L5.7,362l2.9-16.6l8.6-15.3l2.7-4l3.6-20.8l2.2-8.8l6.5-21.8l0.5-4.2
			l18.8-1.2l18.1,2l-24.2-11.8l-10.2-10.1l-2.4,21.1l2.4-21.5l-9.2-10.2l3.5-26.3l-6.5-21.8l6.9-18.3l3.5-31.3l-3-31.6l1.7-15.2
			l-3.5-23.5l-7.9-20.8L27.2,18c0,0,0-0.1,0-0.1l8.7,4.2l2.9,5l7.2,12.4l0.5,5.1l0.9,8.3l0.1,0.9L46.7,64l7.1,16.2l0.2,0.3l2.3,5.4
			l0,0l2.9,6.6l0.5,7.6l1.4,21.7l3.5,9.7l2.9,8.1l3.2,8.9l2.1,6l4,11.3l-2.5,22.4l-0.7,6.5L73,199.7z M42.1,204.1l-0.1-8
			c2.6-8.4,3.8-14.8-3.3-18.8c-0.1,0.2-0.2,0.4-0.3,0.7l-3,2.3l-0.8,7.5l4.6,9.7L42.1,204.1z"/>
		<polygon fill="#068E64" points="174.1,57.8 168.5,88.1 159.5,134.8 142.4,201.9 140.3,212.4 147.9,161 		"/>
		<polygon fill="#FFD58A" points="160.8,44.4 160.3,51.6 160,51.6 		"/>
		<linearGradient id="SVGID_4_" gradientUnits="userSpaceOnUse" x1="147.2358" y1="76.2925" x2="152.3466" y2="62.0215">
			<stop  offset="0" style="stop-color:#068E64"/>
			<stop  offset="1" style="stop-color:#0EAF81"/>
		</linearGradient>
		<polygon fill="url(#SVGID_4_)" points="160,51.6 159.5,56.4 152.8,68.1 151.8,73.2 142.7,74.7 143.7,72.3 145.7,67.6 152.3,52.1 
			152.7,49.4 		"/>
		<polygon fill="#FFD58A" points="160.8,44.4 160,51.6 152.7,49.4 153.1,45.7 		"/>
		<linearGradient id="SVGID_5_" gradientUnits="userSpaceOnUse" x1="154.9164" y1="46.3064" x2="157.3486" y2="39.5147">
			<stop  offset="0" style="stop-color:#068E64"/>
			<stop  offset="1" style="stop-color:#0EAF81"/>
		</linearGradient>
		<polygon fill="url(#SVGID_5_)" points="160.8,44.4 160.8,44.4 153.1,45.7 153.5,42.2 154.4,34.7 154.7,32.3 		"/>
		<polygon fill="#FFD58A" points="151.8,73.2 151.7,73.3 150.5,79.4 142.2,75.8 142.7,74.7 		"/>
		<polygon fill="#FFD58A" points="150.5,79.4 151.7,73.3 150.6,79.4 		"/>
		<linearGradient id="SVGID_6_" gradientUnits="userSpaceOnUse" x1="88.6471" y1="206.6254" x2="114.7948" y2="133.6118">
			<stop  offset="0" style="stop-color:#068E64"/>
			<stop  offset="1" style="stop-color:#0EAF81"/>
		</linearGradient>
		<path fill="url(#SVGID_6_)" d="M150.5,79.4l-6,29.6l-16.5,25.2l-0.6,8.5l-10.8,2.4l10.1,7.9l-4.7,11.5l-7.7,1.1
			c0,0,4.2,7.1,4.1,7.8l0,0l-7.3,18.2l-22.1,15l-10.4-4.6l-5.5-2.4l0.5-4.9l0.7-6.5l10.9-2.2l19.2-30.2l2.6-9.3l1.3-4.6l3.4-12.4
			l4.8-5.5l11.6-13.4l4.8-12l0,0l3.4-8.3l-0.1,0l4.2-10.3l1.8-4.1L150.5,79.4z M145.3,105l1.4-6.9l-9.1,1.2L145.3,105z M127.5,134.1
			l4.9-8.5l-11-1.2L127.5,134.1z"/>
		<polygon fill="#D1AD74" points="154.4,34.7 153.5,42.2 142.7,36.6 		"/>
		<polygon fill="#FFD58A" points="153.1,45.7 152.7,49.4 144.6,47 		"/>
		<polygon fill="#FFD58A" points="146.7,98.1 145.3,105 137.6,99.3 		"/>
		<polygon fill="#D1AD74" points="145.7,67.6 143.7,72.3 136.6,67.5 		"/>
		<polygon fill="#FFD58A" points="142.7,74.7 142.2,75.8 140.4,75 		"/>
		<polygon fill="#D1AD74" points="136.4,90.3 132.9,98.6 132.9,98.6 136.3,90.3 		"/>
		<polygon fill="#FFD58A" points="132.4,125.6 127.5,134.1 121.5,124.4 		"/>
		<polygon fill="#D1AD74" points="136.3,90.3 132.9,98.6 122.9,88.8 		"/>
		<polygon fill="#FFD58A" points="127.4,142.8 126.7,153.1 116.6,145.2 		"/>
		<path fill="#FFD58A" d="M122.1,164.6l-0.2,0.6l-3.4,8.3c0.1-0.7-4.1-7.8-4.1-7.8L122.1,164.6z"/>
		<linearGradient id="SVGID_7_" gradientUnits="userSpaceOnUse" x1="118.6125" y1="173.6526" x2="120.2795" y2="168.9977">
			<stop  offset="0" style="stop-color:#068E64"/>
			<stop  offset="1" style="stop-color:#0EAF81"/>
		</linearGradient>
		<polygon fill="url(#SVGID_7_)" points="118.4,173.6 121.8,165.2 118.4,173.6 		"/>
		<polygon fill="#D1AD74" points="116.4,124 111.7,129.5 105.9,121.2 		"/>
		<polygon fill="#D1AD74" points="108.3,141.8 107,146.5 101.9,142.3 		"/>
		<polygon fill="#068E64" points="76.1,213.6 85.9,244.3 71.4,214 73,199.7 78.6,202.1 		"/>
		<polygon fill="#068E64" points="69.6,271.4 51.5,269.4 32.7,270.5 35.1,249.4 45.3,259.5 		"/>
		<polygon fill="#FFD58A" points="78.1,150.9 72.7,154.6 70.6,148.6 		"/>
		<polygon fill="#FFD58A" points="70.6,148.6 72.7,154.6 70.6,148.6 		"/>
		<polygon fill="#FFD58A" points="73.4,133.5 67.4,139.7 64.5,131.6 		"/>
		<polygon fill="#FFD58A" points="73,93.5 59.7,100.1 59.2,92.5 		"/>
		<polygon fill="#FFD58A" points="62.1,82.2 56.3,85.9 53.9,80.5 53.8,80.2 		"/>
		<polygon fill="#FFD58A" points="56.3,85.9 56.3,85.9 56.3,85.9 53.9,80.5 		"/>
		<path fill="#068E64" d="M42,196.1l0.1,8l-2.9-6.6l-4.6-9.7l0.8-7.5l3-2.3C36.8,182.2,34.8,191.8,42,196.1z"/>
		<polygon fill="#FFD58A" points="55.6,45.6 47.4,52.8 46.5,44.5 		"/>
		<linearGradient id="SVGID_8_" gradientUnits="userSpaceOnUse" x1="7.7373" y1="126.2927" x2="38.5441" y2="129.7074">
			<stop  offset="0" style="stop-color:#068E64"/>
			<stop  offset="1" style="stop-color:#0EAF81"/>
		</linearGradient>
		<path fill="url(#SVGID_8_)" d="M22.9,190.6l6.5,21.8l-3.5,26.3l0.1-27.6l-6-20.2l6.5-22.6l1.8-48.6l-1.6-14.8l1.6-14.4L22.5,64
			c0,0-6.4-13.2-6.2-14.8c0.2-1.6,10.2-29.5,10.9-31.2l-6.6,31.8l7.9,20.8l3.5,23.5l-1.7,15.2l3,31.6l-3.5,31.3L22.9,190.6z"/>
		<polygon fill="#FFD58A" points="48.3,23.6 38.8,27.1 35.9,22.1 		"/>
	</g>
</g>
</svg>
