<?xml version="1.0" encoding="utf-8"?>
<!-- Generator: Adobe Illustrator 18.1.0, SVG Export Plug-In . SVG Version: 6.00 Build 0)  -->
<!DOCTYPE svg PUBLIC "-//W3C//DTD SVG 1.1//EN" "http://www.w3.org/Graphics/SVG/1.1/DTD/svg11.dtd">
<svg version="1.1" id="Layer_1" xmlns="http://www.w3.org/2000/svg" xmlns:xlink="http://www.w3.org/1999/xlink" x="0px" y="0px"
	 viewBox="0 0 362 206" enable-background="new 0 0 362 206" xml:space="preserve">
<g>
	<defs>
		<rect id="SVGID_1_" width="362" height="206"/>
	</defs>
	<clipPath id="SVGID_2_">
		<use xlink:href="#SVGID_1_"  overflow="visible"/>
	</clipPath>
	<g clip-path="url(#SVGID_2_)">
		<path fill="#0EAF81" d="M266.3,142.7c-4.3,0-7.8,1.4-10.3,4.3s-3.8,6.8-3.8,11.9c0,5.2,1.2,9.2,3.6,12c2.4,2.8,5.9,4.2,10.4,4.2
			c2.8,0,5.9-0.5,9.4-1.5v4c-2.7,1-6.1,1.5-10.1,1.5c-5.8,0-10.3-1.8-13.5-5.3c-3.2-3.5-4.7-8.5-4.7-15c0-4.1,0.8-7.6,2.3-10.7
			c1.5-3.1,3.7-5.4,6.6-7.1c2.9-1.7,6.2-2.5,10.1-2.5c4.1,0,7.8,0.8,10.9,2.3l-1.9,3.9C272.2,143.4,269.2,142.7,266.3,142.7z"/>
		<path fill="#0EAF81" d="M297.1,148.5c1.3,0,2.5,0.1,3.5,0.3L300,153c-1.2-0.3-2.3-0.4-3.2-0.4c-2.4,0-4.4,1-6.1,2.9
			c-1.7,1.9-2.6,4.4-2.6,7.3v15.9h-4.5v-29.6h3.7l0.5,5.5h0.2c1.1-1.9,2.4-3.4,4-4.5S295.2,148.5,297.1,148.5z"/>
		<path fill="#0EAF81" d="M331.7,163.8c0,4.8-1.2,8.6-3.6,11.3c-2.4,2.7-5.8,4.1-10.1,4.1c-2.6,0-5-0.6-7-1.9
			c-2.1-1.2-3.6-3-4.8-5.3c-1.1-2.3-1.7-5-1.7-8.2c0-4.8,1.2-8.6,3.6-11.3s5.8-4,10-4c4.1,0,7.4,1.4,9.9,4.1
			C330.5,155.4,331.7,159.1,331.7,163.8z M309.1,163.8c0,3.8,0.8,6.7,2.3,8.6c1.5,2,3.7,3,6.7,3c2.9,0,5.2-1,6.7-3
			c1.5-2,2.3-4.9,2.3-8.7c0-3.8-0.8-6.6-2.3-8.6c-1.5-2-3.8-2.9-6.7-2.9c-2.9,0-5.1,1-6.6,2.9S309.1,160,309.1,163.8z"/>
		<path fill="#0EAF81" d="M351.4,179.2c-4.3,0-7.6-1.3-9.9-4c-2.3-2.6-3.5-6.4-3.5-11.2c0-4.9,1.2-8.8,3.6-11.5
			c2.4-2.7,5.8-4,10.2-4c1.4,0,2.8,0.2,4.3,0.5c1.4,0.3,2.5,0.7,3.3,1.1l-1.4,3.8c-1-0.4-2.1-0.7-3.2-1s-2.2-0.4-3.1-0.4
			c-6,0-9,3.8-9,11.5c0,3.6,0.7,6.4,2.2,8.4c1.5,1.9,3.6,2.9,6.5,2.9c2.5,0,5-0.5,7.6-1.6v4C356.9,178.7,354.4,179.2,351.4,179.2z"
			/>
	</g>
	<g id="XMLID_2_" clip-path="url(#SVGID_2_)">
		<g>
			<linearGradient id="SVGID_3_" gradientUnits="userSpaceOnUse" x1="230.3486" y1="233.2026" x2="214.5431" y2="132.6171">
				<stop  offset="0" style="stop-color:#068E64"/>
				<stop  offset="1" style="stop-color:#0EAF81"/>
			</linearGradient>
			<polygon fill="url(#SVGID_3_)" points="237.4,192.3 250.8,254.2 216,250.5 213.8,171.9 219.3,150.6 221.8,137.9 226.9,158 			"/>
			<polygon fill="#068E64" points="227.1,102.3 245.2,31 241.3,51.9 235.1,84.2 223.2,130.6 221.8,137.9 			"/>
			<polygon fill="#FFD58A" points="236,21.7 235.6,26.7 235.5,26.7 			"/>
			<polygon fill="#FFD58A" points="236,21.7 235.5,26.7 230.4,25.2 230.7,22.6 			"/>
			<polygon fill="#FFD58A" points="229.8,41.6 229.7,41.7 228.9,45.9 223.1,43.5 223.5,42.7 			"/>
			<polygon fill="#FFD58A" points="228.9,45.9 229.7,41.7 228.9,46 			"/>
			<linearGradient id="SVGID_4_" gradientUnits="userSpaceOnUse" x1="231.9258" y1="23.0626" x2="233.6067" y2="18.3687">
				<stop  offset="0" style="stop-color:#068E64"/>
				<stop  offset="1" style="stop-color:#0EAF81"/>
			</linearGradient>
			<polygon fill="url(#SVGID_4_)" points="236,21.7 230.7,22.6 231,20.2 231.6,15.1 231.8,13.4 236,21.7 			"/>
			<polygon fill="#FFD58A" points="226.3,58.9 225.3,63.6 220,59.7 			"/>
			<polygon fill="#FFD58A" points="230.4,25.2 224.8,23.6 230.7,22.6 			"/>
			<polygon fill="#D1AD74" points="231,20.2 223.5,16.4 231.6,15.1 			"/>
			<polygon fill="#D1AD74" points="225.6,37.8 224.2,41 219.3,37.7 			"/>
			<linearGradient id="SVGID_5_" gradientUnits="userSpaceOnUse" x1="226.6177" y1="43.7863" x2="230.1498" y2="33.9235">
				<stop  offset="0" style="stop-color:#068E64"/>
				<stop  offset="1" style="stop-color:#0EAF81"/>
			</linearGradient>
			<polygon fill="url(#SVGID_5_)" points="230.4,25.2 235.5,26.7 235.1,30 230.5,38.1 229.8,41.6 223.5,42.7 224.2,41 225.6,37.8 
				230.1,27.1 			"/>
			<polygon fill="#FFD58A" points="223.5,42.7 223.1,43.5 221.9,42.9 			"/>
			<polygon fill="#FFD58A" points="213,83.7 208.8,77 216.4,77.8 			"/>
			<polygon fill="#D1AD74" points="219,53.4 216.7,59.2 209.8,52.4 			"/>
			<polygon fill="#D1AD74" points="219.1,53.4 216.7,59.2 216.7,59.2 219,53.4 			"/>
			<polygon fill="#FFD58A" points="212.9,89.7 212.4,96.9 205.5,91.4 			"/>
			<path fill="#FFD58A" d="M209.2,104.8l-0.2,0.4l-2.3,5.8c0.1-0.5-2.8-5.4-2.8-5.4L209.2,104.8z"/>
			<linearGradient id="SVGID_6_" gradientUnits="userSpaceOnUse" x1="206.8358" y1="111.073" x2="207.9879" y2="107.8559">
				<stop  offset="0" style="stop-color:#068E64"/>
				<stop  offset="1" style="stop-color:#0EAF81"/>
			</linearGradient>
			<polygon fill="url(#SVGID_6_)" points="206.7,111 209.1,105.3 206.7,111 			"/>
			<polygon fill="#D1AD74" points="205.3,76.7 202,80.5 198,74.8 			"/>
			<polygon fill="#D1AD74" points="195.3,89.4 199.7,89.1 198.8,92.3 			"/>
			<polygon fill="#068E64" points="177.5,138.7 184.3,159.9 174.2,139 175.3,129.1 179.2,130.8 			"/>
			<linearGradient id="SVGID_7_" gradientUnits="userSpaceOnUse" x1="186.1264" y1="133.8608" x2="204.1973" y2="83.4003">
				<stop  offset="0" style="stop-color:#068E64"/>
				<stop  offset="1" style="stop-color:#0EAF81"/>
			</linearGradient>
			<path fill="url(#SVGID_7_)" d="M216.4,77.8l-7.6-0.8l4.2,6.7L216.4,77.8z M216.7,59.2l2.4-5.8l-0.1,0l2.9-7.1l1.2-2.8l5.8,2.5
				l-4.1,20.5l-11.4,17.4l-0.4,5.9l-7.5,1.6l7,5.5l-3.2,8l-5.3,0.7c0,0,2.9,4.9,2.8,5.4l0,0l-5.1,12.6l-15.3,10.4l-7.2-3.2l-3.8-1.7
				l0.4-3.4l0.5-4.5l7.6-1.6L197,98.7l1.8-6.4l0.9-3.2l2.4-8.6l3.3-3.8l8-9.3L216.7,59.2L216.7,59.2z M220,59.7l5.3,4l1-4.8
				L220,59.7z"/>
			<polygon fill="#068E64" points="172.9,178.6 160.5,177.2 147.5,178 149.1,163.4 156.2,170.4 			"/>
			<polygon fill="#FFD58A" points="178.9,95.3 175.1,97.9 173.7,93.7 			"/>
			<polygon fill="#FFD58A" points="173.7,93.7 175.1,97.9 173.7,93.7 			"/>
			<polygon fill="#FFD58A" points="175.6,83.3 171.5,87.6 169.5,82 			"/>
			<polygon fill="#FFD58A" points="175.3,55.7 166.1,60.3 165.8,55 			"/>
			<polygon fill="#FFD58A" points="167.8,47.9 163.8,50.4 162.1,46.7 162,46.5 			"/>
			<polygon fill="#FFD58A" points="163.8,50.4 163.8,50.4 163.8,50.4 162.1,46.7 			"/>
			<path fill="#068E64" d="M148.7,120.9l0.6-5.2l2.1-1.6c-1,2.9-2.5,9.5,2.5,12.5l0.1,5.5l-2-4.5L148.7,120.9z"/>
			<polygon fill="#FFD58A" points="163.3,22.5 157.6,27.6 157,21.8 			"/>
			<polygon fill="#FFD58A" points="158.2,7.4 151.6,9.8 149.6,6.3 			"/>
			<path fill="#0EAF81" d="M149.3,115.7l-0.6,5.2l3.2,6.7l2,4.5l-0.1-5.5c1.8-5.8,2.6-10.2-2.3-13c-0.1,0.2-0.1,0.3-0.2,0.5
				L149.3,115.7z M139.1,25.5l4.5-22c0,0,0-0.1,0-0.1l6,2.9l2,3.4l5,8.6l0.4,3.5l0.6,5.7l0.1,0.6l-0.5,7.1l4.9,11.2l0.1,0.2l1.6,3.7
				l0,0l2,4.6l0.3,5.2l1,15l2.4,6.7l2,5.6l2.2,6.1l1.5,4.2l2.8,7.8l-1.7,15.5l-0.5,4.5l-0.4,3.4l-1.1,9.9l10,20.9l-6.8-21.3l1.7-7.9
				l7.2,3.2l15.3-10.4l5.1-12.6l2.3-5.8l0.2-0.4l3.2-8l0.5-7.1l0.4-5.9l11.4-17.4l4.1-20.5l0,0l0.8-4.2l0-0.1l0.7-3.5l4.6-8.1
				l0.4-3.3l0.2,0.1l0.4-5l0,0l-4.2-8.4l8.5,4.8l4.9,12.8l-18.1,71.4l-5.3,35.5l0,0l-2.5,12.7l-5.4,21.4l2.1,78.6l-87.2-9.3l2-11.4
				l5.9-10.6l1.9-2.8l2.5-14.4l1.5-6.1l4.5-15l0.3-2.9l13-0.8l12.5,1.4l-16.7-8.2l-7.1-7l-1.7,14.6l1.6-14.9l-6.3-7.1l2.4-18.2
				l-4.5-15.1l4.8-12.7l2.4-21.6l-2.1-21.9l1.2-10.5l-2.4-16.3L139.1,25.5z"/>
			<linearGradient id="SVGID_8_" gradientUnits="userSpaceOnUse" x1="130.2087" y1="78.342" x2="151.4996" y2="80.7019">
				<stop  offset="0" style="stop-color:#068E64"/>
				<stop  offset="1" style="stop-color:#0EAF81"/>
			</linearGradient>
			<path fill="url(#SVGID_8_)" d="M143.6,3.5l-4.5,22l5.4,14.4l2.4,16.3l-1.2,10.5l2.1,21.9l-2.4,21.6l-4.8,12.7l4.5,15.1l-2.4,18.2
				l0-19.1l-4.2-13.9l4.5-15.6l1.3-33.6l-1.1-10.2l1.1-10l-4-18.4c0,0-4.4-9.1-4.3-10.2C136.2,24,143.2,4.7,143.6,3.5z"/>
		</g>
		<g>
		</g>
	</g>
</g>
</svg>
