<?xml version="1.0" encoding="utf-8"?>
<!-- Generator: Adobe Illustrator 18.1.0, SVG Export Plug-In . SVG Version: 6.00 Build 0)  -->
<!DOCTYPE svg PUBLIC "-//W3C//DTD SVG 1.1//EN" "http://www.w3.org/Graphics/SVG/1.1/DTD/svg11.dtd">
<svg version="1.1" id="Layer_1" xmlns="http://www.w3.org/2000/svg" xmlns:xlink="http://www.w3.org/1999/xlink" x="0px" y="0px"
	 viewBox="0 0 70 70" enable-background="new 0 0 70 70" xml:space="preserve">
<g>
	<circle fill="#FFFFFF" cx="35" cy="35" r="34"/>
	<g>
		<defs>
			<circle id="SVGID_1_" cx="35" cy="35" r="34"/>
		</defs>
		<clipPath id="SVGID_2_">
			<use xlink:href="#SVGID_1_"  overflow="visible"/>
		</clipPath>
		<path clip-path="url(#SVGID_2_)" fill="#098262" d="M55.2,91.9L51,72.5l-3.3-10.7l-1.6-6.3l0.5-2.3l3.7-14.5l2-10.1l1.2-6.6
			l-1.4-4l-2.6-1.5l-0.2,0.5l-2.6,0.4l2.4,1.2l0,0.7l-2.1,0.3l1.8,0.5l-0.1,0.6L47.3,24l-2,0l1.5,1l-0.2,0.5h0l-0.1,0.2l0,0
			l-0.4,0.9l-0.8,2.1l-3-0.2l2.2,2.1l-1,2.6L41,36.2l-2.3-0.6l1.3,1.8l-0.7,2.7l-1.4,0.1l1.1,0.9l-0.6,2l-4.2,6.6l-4.9,1l-3.5,38.2
			l18.4,2L55.2,91.9z M44.8,36.4L44.8,36.4L42,36.3l0,0L44.8,36.4z"/>
		<path clip-path="url(#SVGID_2_)" fill="#0DAF81" d="M52,17.8l-2.6-1.5l1.5,2.6v0l-1.9,0.3l-2.1,0.3l1.8,0.5l1.6,0.5l-0.1,1
			l-1.5,2.5l-0.2,1.1l-2,0.3l-0.1,0.2l1.8,0.8l-0.8,4.1l-2,0.3l1.7,1.2L47,33l-2.3,3.5L42,36.3l1.4,2.1l-0.1,1.9L41,40.8l2.2,1.7
			L42.1,45l-1.8,0.2c0,0,0.7,1.5,0.7,1.7v0l-1.4,3.9L35,54.2l-2.3-1l-0.5,2.5l2.1,6.7l-3.1-6.6l0.3-3.1l0.1-1.1l0.2-1.4l0.5-4.9
			l-0.9-2.4l1.2-0.8L31,41.5l0,0.1l0-0.1l-0.7-1.9l1.3-1.3l-2-0.4l-0.8-2.1L28.5,31l2.8-1.4l-3.2-0.2L27,27.9v0l1.7-0.8l-1.3-0.4
			l-1.5-3.5L26,21l0-0.2l1.8-1.6l-2-0.2l-0.1-1.1l-1.6-2.7l2.1-0.8l-2.7-0.3l-1.9-0.9c0,0-2.3,6.4-2.4,6.8c0,0.3,1.4,3.2,1.4,3.2
			l1.2,5.8l-0.3,3.1l0.3,3.2l-0.4,10.5L20,50.7l1.3,4.4l0,6l2,2.2l-0.6,5.6l-1.4,4.7l-0.5,1.9L20,80.1l-0.6,0.9l-1.9,3.3l-0.6,3.6
			l27.4,2.9l-0.7-24.7l1.7-6.7l0.8-4l0.5-2.3l3.7-14.5l2-10.1l1.2-6.6L52,17.8z M24.5,47.1c2.8,1.2,2.3,3.1,1.3,5.6
			c-2.8-1.3-2-4.1-1.4-5.4C24.4,47.2,24.5,47.2,24.5,47.1z"/>
		<path clip-path="url(#SVGID_2_)" fill="#098262" d="M24.4,47.3L23.2,48l-0.3,2.2l1.8,2.9l1.2,1.9l-0.1-2.4
			C23,51.4,23.8,48.5,24.4,47.3z"/>
	</g>
	<path fill="#0EAF81" d="M35,70C15.7,70,0,54.3,0,35S15.7,0,35,0s35,15.7,35,35S54.3,70,35,70z M35,2C16.8,2,2,16.8,2,35
		s14.8,33,33,33s33-14.8,33-33S53.2,2,35,2z"/>
</g>
</svg>
