<?xml version="1.0" encoding="utf-8"?>
<!-- Generator: Adobe Illustrator 18.1.0, SVG Export Plug-In . SVG Version: 6.00 Build 0)  -->
<!DOCTYPE svg PUBLIC "-//W3C//DTD SVG 1.1//EN" "http://www.w3.org/Graphics/SVG/1.1/DTD/svg11.dtd">
<svg version="1.1" id="Layer_1" xmlns="http://www.w3.org/2000/svg" xmlns:xlink="http://www.w3.org/1999/xlink" x="0px" y="0px"
	 viewBox="0 0 94 94" enable-background="new 0 0 94 94" xml:space="preserve">
<path fill="#0EAF81" d="M47,94C21.1,94,0,72.9,0,47C0,21.1,21.1,0,47,0c25.9,0,47,21.1,47,47C94,72.9,72.9,94,47,94z M47,2
	C22.2,2,2,22.2,2,47s20.2,45,45,45s45-20.2,45-45S71.8,2,47,2z"/>
<path fill="#0EAF81" d="M39.7,66.6c-1.2,0-2.3-0.5-3.2-1.4L24.5,51.7c-0.8-0.9-1.3-2.1-1.3-3.3c0-2.6,2-4.8,4.5-4.8
	c1.2,0,2.3,0.5,3.2,1.4l8.9,10l23.4-25.6c0.8-0.9,2-1.4,3.2-1.4c2.5,0,4.5,2.1,4.5,4.8c0,1.3-0.5,2.4-1.3,3.3L42.9,65.2
	C42.1,66.1,40.9,66.6,39.7,66.6z M27.6,45.6c-1.4,0-2.5,1.3-2.5,2.8c0,0.8,0.3,1.5,0.8,2L38,63.9c0.9,1,2.5,1,3.5,0l26.6-29.1
	c0.5-0.5,0.8-1.3,0.8-2c0-1.6-1.1-2.8-2.5-2.8c-0.7,0-1.3,0.3-1.7,0.8L39.7,57.9L29.4,46.3C28.9,45.8,28.3,45.6,27.6,45.6z"/>
</svg>
