<?xml version="1.0" encoding="utf-8"?>
<!-- Generator: Adobe Illustrator 18.1.0, SVG Export Plug-In . SVG Version: 6.00 Build 0)  -->
<!DOCTYPE svg PUBLIC "-//W3C//DTD SVG 1.1//EN" "http://www.w3.org/Graphics/SVG/1.1/DTD/svg11.dtd">
<svg version="1.1" id="Layer_1" xmlns="http://www.w3.org/2000/svg" xmlns:xlink="http://www.w3.org/1999/xlink" x="0px" y="0px"
	 viewBox="0 0 94 94" enable-background="new 0 0 94 94" xml:space="preserve">
<path fill="#0EAF81" d="M47,94C21.1,94,0,72.9,0,47C0,21.1,21.1,0,47,0c25.9,0,47,21.1,47,47C94,72.9,72.9,94,47,94z M47,2
	C22.2,2,2,22.2,2,47s20.2,45,45,45s45-20.2,45-45S71.8,2,47,2z"/>
<g>
	<defs>
		<circle id="SVGID_1_" cx="47" cy="47" r="46"/>
	</defs>
	<clipPath id="SVGID_2_">
		<use xlink:href="#SVGID_1_"  overflow="visible"/>
	</clipPath>
	<path clip-path="url(#SVGID_2_)" fill="#0EAF81" d="M29.1,96.6c-0.9,0-1.7-0.2-2.5-0.7l-11.8-7c-1.5-0.9-2.4-2.5-2.4-4.2l0-13.3
		c0-1.8,1-3.4,2.5-4.3l11.7-6.4c1.5-0.8,3.4-0.8,4.9,0.1l11.8,7c1.5,0.9,2.4,2.5,2.4,4.2l0,13.3c0,1.8-1,3.4-2.5,4.3L31.4,96
		C30.7,96.4,29.9,96.6,29.1,96.6z M28.9,62.1c-0.5,0-1,0.1-1.4,0.4l-11.7,6.4c-0.9,0.5-1.5,1.5-1.5,2.6l0,13.3c0,1,0.6,2,1.5,2.5
		l11.8,7c0.9,0.5,2,0.5,2.9,0l11.7-6.4c0.9-0.5,1.5-1.5,1.5-2.6l0-13.3c0-1-0.6-2-1.5-2.5l-11.8-7C30,62.2,29.5,62.1,28.9,62.1z"/>
	<path clip-path="url(#SVGID_2_)" fill="#0EAF81" d="M11.9,66c-0.9,0-1.7-0.2-2.5-0.7l-11.8-7c-1.5-0.9-2.4-2.5-2.4-4.2l0-13.3
		c0-1.8,1-3.4,2.5-4.3l11.7-6.4c1.5-0.8,3.4-0.8,4.9,0.1l11.8,7c1.5,0.9,2.4,2.5,2.4,4.2l0,13.3c0,1.8-1,3.4-2.5,4.3l-11.7,6.4
		C13.6,65.8,12.8,66,11.9,66z M11.8,31.5c-0.5,0-1,0.1-1.4,0.4l-11.7,6.4c-0.9,0.5-1.5,1.5-1.5,2.6l0,13.3c0,1,0.6,2,1.5,2.5l11.8,7
		c0.9,0.5,2,0.5,2.9,0L25,57.3c0.9-0.5,1.5-1.5,1.5-2.6l0-13.3c0-1-0.6-2-1.5-2.5l-11.8-7C12.8,31.6,12.3,31.5,11.8,31.5z"/>
	<path clip-path="url(#SVGID_2_)" fill="#0EAF81" d="M65.1,97.2c-0.9,0-1.7-0.2-2.5-0.7l-11.8-7c-1.5-0.9-2.4-2.5-2.4-4.2l0-13.3
		c0-1.8,1-3.4,2.5-4.3l11.7-6.4c1.5-0.8,3.4-0.8,4.9,0.1l11.8,7c1.5,0.9,2.4,2.5,2.4,4.2l0,13.3c0,1.8-1,3.4-2.5,4.3l-11.7,6.4
		C66.7,97,65.9,97.2,65.1,97.2z M64.9,62.7c-0.5,0-1,0.1-1.4,0.4l-11.7,6.4c-0.9,0.5-1.5,1.5-1.5,2.6l0,13.3c0,1,0.6,2,1.5,2.5
		l11.8,7c0.9,0.5,2,0.5,2.9,0l11.7-6.4c0.9-0.5,1.5-1.5,1.5-2.6l0-13.3c0-1-0.6-2-1.5-2.5l-11.8-7C66,62.8,65.5,62.7,64.9,62.7z"/>
	<g clip-path="url(#SVGID_2_)">
		<path fill="#0EAF81" d="M47,61.7c-0.5,0-1-0.4-1-1V47.8c0-0.4,0.2-0.7,0.5-0.9l2-1l11.6-6.4c0.9-0.5,1.5-1.5,1.5-2.6l0-13.3
			c0-1-0.6-2-1.5-2.5l-11.8-7c-0.9-0.5-2-0.5-2.9,0l-11.7,6.4C32.9,21,32.3,22,32.3,23l0,13.3c0,1,0.5,2,1.5,2.5l10,5.8
			c0.5,0.3,0.6,0.9,0.4,1.3c-0.3,0.5-0.9,0.6-1.3,0.4l-10-5.8c-1.5-0.9-2.4-2.5-2.4-4.2l0-13.3c0-1.8,1-3.4,2.5-4.3l11.7-6.4
			c1.5-0.8,3.4-0.8,4.9,0.1l11.8,7c1.5,0.9,2.4,2.5,2.4,4.2l0,13.3c0,1.8-1,3.4-2.5,4.3L48,48.4v12.3C48,61.2,47.5,61.7,47,61.7z"/>
		<path fill="#0EAF81" d="M47,62.4l-3.6-3.6c-0.4-0.4-0.4-1,0-1.4c0.4-0.4,1-0.4,1.4,0l2.2,2.2l2.2-2.2c0.4-0.4,1-0.4,1.4,0
			c0.4,0.4,0.4,1,0,1.4L47,62.4z"/>
	</g>
</g>
</svg>
