<?xml version="1.0" encoding="utf-8"?>
<!-- Generator: Adobe Illustrator 18.1.0, SVG Export Plug-In . SVG Version: 6.00 Build 0)  -->
<!DOCTYPE svg PUBLIC "-//W3C//DTD SVG 1.1//EN" "http://www.w3.org/Graphics/SVG/1.1/DTD/svg11.dtd">
<svg version="1.1" id="Layer_1" xmlns="http://www.w3.org/2000/svg" xmlns:xlink="http://www.w3.org/1999/xlink" x="0px" y="0px"
	 viewBox="0 0 94 94" enable-background="new 0 0 94 94" xml:space="preserve">
<g>
	<path fill="#0EAF81" d="M47,94C21.1,94,0,72.9,0,47C0,21.1,21.1,0,47,0c25.9,0,47,21.1,47,47C94,72.9,72.9,94,47,94z M47,2
		C22.2,2,2,22.2,2,47s20.2,45,45,45s45-20.2,45-45S71.8,2,47,2z"/>
	<path fill="#0EAF81" d="M47.2,70.9c-0.6,0-1.2-0.2-1.8-0.5l-5.6-3.3c-0.8-0.5-0.4-0.6-0.2-0.7c1.1-0.4,1.3-0.5,2.5-1.2
		c0.1-0.1,0.3,0,0.4,0l4.3,2.6c0.2,0.1,0.4,0.1,0.5,0l16.8-9.7c0.2-0.1,0.3-0.3,0.3-0.5V38.3c0-0.2-0.1-0.4-0.3-0.5l-16.8-9.7
		c-0.2-0.1-0.4-0.1-0.5,0l-16.8,9.7c-0.2,0.1-0.3,0.3-0.3,0.5v19.4c0,0.2,0.1,0.4,0.3,0.4l4.6,2.7c2.5,1.2,4-0.2,4-1.7V39.9
		c0-0.3,0.2-0.5,0.5-0.5h2.1c0.3,0,0.5,0.2,0.5,0.5v19.1c0,3.3-1.8,5.2-5,5.2c-1,0-1.7,0-3.9-1.1l-4.4-2.5c-1.1-0.6-1.8-1.8-1.8-3.1
		V38.3c0-1.3,0.7-2.4,1.8-3.1l16.8-9.7c1.1-0.6,2.5-0.6,3.5,0l16.8,9.7c1.1,0.6,1.8,1.8,1.8,3.1v19.4c0,1.3-0.7,2.4-1.8,3.1
		l-16.8,9.7C48.4,70.7,47.8,70.9,47.2,70.9z M60.7,51.8c0-3.6-2.4-4.6-7.6-5.3c-5.2-0.7-5.7-1-5.7-2.3c0-1,0.4-2.4,4.3-2.4
		c3.4,0,4.7,0.7,5.2,3.1c0,0.2,0.2,0.4,0.5,0.4h2.2c0.1,0,0.3-0.1,0.4-0.2c0.1-0.1,0.1-0.2,0.1-0.4c-0.3-4-3-5.9-8.4-5.9
		c-4.8,0-7.6,2-7.6,5.4c0,3.7,2.8,4.7,7.4,5.1c5.5,0.5,5.9,1.3,5.9,2.4c0,1.9-1.5,2.7-5,2.7c-4.4,0-5.4-1.1-5.7-3.3
		c0-0.2-0.2-0.4-0.5-0.4H44c-0.3,0-0.5,0.2-0.5,0.5c0,2.8,1.5,6.2,8.9,6.2C57.7,57.5,60.7,55.4,60.7,51.8z M68.1,32.1v0.3H69V35h0.4
		v-2.5h0.9v-0.3H68.1z M70.7,35h0.4v-1.7c0-0.1,0-0.2,0-0.3c0-0.1,0-0.2,0-0.3v-0.1l0.8,2.4h0.4l0.8-2.4c0,0.2,0,0.3,0,0.4
		c0,0.1,0,0.2,0,0.3V35h0.4v-2.8h-0.5l-0.8,2.4l-0.8-2.4h-0.5V35z"/>
</g>
</svg>
