<?xml version="1.0" encoding="utf-8"?>
<!-- Generator: Adobe Illustrator 18.1.0, SVG Export Plug-In . SVG Version: 6.00 Build 0)  -->
<!DOCTYPE svg PUBLIC "-//W3C//DTD SVG 1.1//EN" "http://www.w3.org/Graphics/SVG/1.1/DTD/svg11.dtd">
<svg version="1.1" id="Layer_1" xmlns="http://www.w3.org/2000/svg" xmlns:xlink="http://www.w3.org/1999/xlink" x="0px" y="0px"
	 viewBox="0 0 94 94" enable-background="new 0 0 94 94" xml:space="preserve">
<g>
	<path fill="#0EAF81" d="M47,94C21.1,94,0,72.9,0,47C0,21.1,21.1,0,47,0c25.9,0,47,21.1,47,47C94,72.9,72.9,94,47,94z M47,2
		C22.2,2,2,22.2,2,47s20.2,45,45,45s45-20.2,45-45S71.8,2,47,2z"/>
	<path fill="#0EAF81" d="M57.3,74.3c-0.4,0-0.8-0.2-0.9-0.6l-6.7-17.1c-0.1-0.2-0.1-0.5,0-0.8c0.1-0.2,0.3-0.4,0.5-0.5
		c3.5-1.3,5.8-4.7,5.8-8.4c0-5-4.1-9-9-9s-9,4.1-9,9c0,3.7,2.3,7.1,5.8,8.4c0.2,0.1,0.4,0.3,0.5,0.5c0.1,0.2,0.1,0.5,0,0.8l-6.9,17
		c-0.2,0.5-0.8,0.7-1.3,0.5c-11.2-4.5-18.4-15.2-18.4-27.2c0-16.2,13.1-29.3,29.3-29.3s29.3,13.2,29.3,29.3
		c0,12.2-7.3,22.9-18.7,27.3C57.5,74.2,57.4,74.3,57.3,74.3z M51.8,56.7l6,15.3c10.1-4.3,16.5-14.1,16.5-25.1
		c0-15.1-12.3-27.4-27.4-27.4c-15.1,0-27.4,12.3-27.4,27.4c0,10.9,6.4,20.7,16.3,25l6.2-15.2c-3.7-1.8-6.2-5.7-6.2-9.9
		c0-6.1,4.9-11,11-11s11,4.9,11,11C58,51.1,55.6,54.9,51.8,56.7z"/>
</g>
</svg>
