<?xml version="1.0" encoding="utf-8"?>
<!-- Generator: Adobe Illustrator 18.1.0, SVG Export Plug-In . SVG Version: 6.00 Build 0)  -->
<!DOCTYPE svg PUBLIC "-//W3C//DTD SVG 1.1//EN" "http://www.w3.org/Graphics/SVG/1.1/DTD/svg11.dtd">
<svg version="1.1" id="Layer_1" xmlns="http://www.w3.org/2000/svg" xmlns:xlink="http://www.w3.org/1999/xlink" x="0px" y="0px"
	 viewBox="0 0 94 94" enable-background="new 0 0 94 94" xml:space="preserve">
<path fill="#0EAF81" d="M47,94C21.1,94,0,72.9,0,47C0,21.1,21.1,0,47,0c25.9,0,47,21.1,47,47C94,72.9,72.9,94,47,94z M47,2
	C22.2,2,2,22.2,2,47s20.2,45,45,45s45-20.2,45-45S71.8,2,47,2z"/>
<path fill="#0EAF81" d="M40.1,65C40.1,65,40.1,65,40.1,65c-2.8,0-4.7-0.9-5.9-2.2c-1.7-1.8-1.6-4.4-1.5-6.8c0.1-2.2,0.2-4.3-1-5.5
	c-0.9-1-2.7-1.5-5.3-1.5c-0.5,0-1-0.5-1-1c0-0.5,0.4-1,1-1c2.5,0,4.1-0.5,5.1-1.4c1.3-1.3,1.2-3.4,1.2-5.7c0-2.5,0-5,1.7-6.8
	c1.2-1.2,3.1-1.8,5.7-1.8c0.5,0,1,0.4,1,1s-0.4,1-1,1c-2.1,0-3.5,0.4-4.3,1.2c-1.1,1.2-1.1,3.2-1.1,5.4c0,2.6,0,5.2-1.8,7.1
	c-0.4,0.4-0.8,0.7-1.3,1c0.6,0.3,1.1,0.7,1.6,1.1c1.8,1.8,1.7,4.5,1.6,6.9c-0.1,2.1-0.2,4.1,0.9,5.2c0.8,0.9,2.3,1.3,4.5,1.3
	c0.5,0,1,0.7,1,1.2C41.1,64.3,40.7,65,40.1,65z"/>
<path fill="#0EAF81" d="M53.9,65c-0.5,0-1-0.7-1-1.2c0-0.5,0.4-1.1,1-1.1c2.2,0,3.7-0.5,4.5-1.4c1.1-1.2,1-3.2,0.9-5.3
	c-0.1-2.4-0.2-5.1,1.6-6.9c0.4-0.5,1-0.8,1.6-1.1c-0.5-0.3-1-0.6-1.3-1c-1.8-1.8-1.8-4.5-1.8-7.1c0-2.2,0-4.2-1.1-5.4
	c-0.8-0.8-2.2-1.2-4.3-1.2c-0.5,0-1-0.4-1-1s0.4-1,1-1c2.6,0,4.5,0.6,5.7,1.8c1.7,1.7,1.7,4.3,1.7,6.8c0,2.3,0,4.4,1.2,5.7
	c1,1,2.6,1.4,5.1,1.4c0.5,0,1,0.4,1,1c0,0.5-0.4,1-1,1c-2.6,0-4.3,0.5-5.3,1.5c-1.2,1.2-1.1,3.3-1,5.4c0.1,2.4,0.2,5.2-1.5,6.9
	C58.6,64.1,56.6,65,53.9,65C53.9,65,53.9,65,53.9,65z"/>
</svg>
