<?xml version="1.0" encoding="utf-8"?>
<!-- Generator: Adobe Illustrator 18.1.0, SVG Export Plug-In . SVG Version: 6.00 Build 0)  -->
<!DOCTYPE svg PUBLIC "-//W3C//DTD SVG 1.1//EN" "http://www.w3.org/Graphics/SVG/1.1/DTD/svg11.dtd">
<svg version="1.1" id="Layer_1" xmlns="http://www.w3.org/2000/svg" xmlns:xlink="http://www.w3.org/1999/xlink" x="0px" y="0px"
	 viewBox="0 0 94 94" enable-background="new 0 0 94 94" xml:space="preserve">
<g>
	<defs>
		<circle id="SVGID_1_" cx="47" cy="47" r="46"/>
	</defs>
	<clipPath id="SVGID_2_">
		<use xlink:href="#SVGID_1_"  overflow="visible"/>
	</clipPath>
	<g clip-path="url(#SVGID_2_)">
		<path fill="#0EAF81" d="M51,70.7c-0.1,0-0.2,0-0.3-0.1c-0.5-0.2-0.8-0.7-0.6-1.3c1.8-4.9,6-9.2,11.2-11.4
			c-2.1-2.2-3.3-5.2-3.3-8.3c0-6.7,5.4-12.1,12.1-12.1c6.7,0,12.1,5.4,12.1,12.1c0,6.7-5.4,12.1-12.1,12.1c-0.5,0-1-0.4-1-1
			s0.4-1,1-1c5.6,0,10.1-4.5,10.1-10.1s-4.5-10.1-10.1-10.1c-5.6,0-10.1,4.5-10.1,10.1c0,3.1,1.4,6,3.8,7.9c0.4,0.3,0.5,0.8,0.3,1.2
			c-0.1,0.2-0.3,0.4-0.6,0.5C58.1,61,53.7,65.2,51.9,70C51.8,70.4,51.4,70.7,51,70.7z"/>
		<path fill="#0EAF81" d="M89.3,78c-0.5,0-1-0.4-1-1c0-7.8-4.7-14.6-12-17.4c-0.5-0.2-0.8-0.8-0.6-1.3c0.2-0.5,0.8-0.8,1.3-0.6
			c8,3.1,13.2,10.7,13.2,19.3C90.2,77.5,89.8,78,89.3,78z"/>
	</g>
	<g clip-path="url(#SVGID_2_)">
		<path fill="#0EAF81" d="M28.3,123.5c-17.9,0-32.4-14.4-32.4-32.2c0-13.3,8.2-25.1,20.5-30c-3.6-3.5-5.7-8.3-5.7-13.4
			c0-10.3,8.3-18.6,18.6-18.6S48,37.7,48,48c0,5.6-2.5,10.6-6.3,14c11.6,5.2,19.1,16.5,19.1,29.3C60.7,109.1,46.2,123.5,28.3,123.5z
			 M29.4,31.3c-9.2,0-16.6,7.5-16.6,16.6c0,5.1,2.3,9.8,6.2,13c0.4,0.3,0.5,0.8,0.3,1.2c-0.1,0.2-0.3,0.4-0.6,0.5
			C6.2,66.8-2.1,78.3-2.1,91.3c0,16.7,13.7,30.2,30.4,30.2c16.8,0,30.4-13.6,30.4-30.2c0-12.4-7.4-23.3-18.9-28
			c-3,2-6.6,3.2-10.5,3.2c-0.5,0-1-0.4-1-1c0-0.5,0.4-1,1-1C38.6,64.6,46,57.2,46,48S38.6,31.3,29.4,31.3z"/>
	</g>
	<g clip-path="url(#SVGID_2_)">
		<path fill-rule="evenodd" clip-rule="evenodd" fill="#F2F2F2" d="M47,79.5c0,0,3.8,4.6,3.8,13.5"/>
		<path fill="#0EAF81" d="M50.8,94c-0.5,0-1-0.4-1-1c0-8.5-3.5-12.9-3.5-12.9c-0.3-0.4-0.3-1,0.1-1.4c0.4-0.3,1-0.3,1.4,0.1
			c0.2,0.2,4,4.9,4,14.2C51.7,93.6,51.3,94,50.8,94z"/>
	</g>
	<g clip-path="url(#SVGID_2_)">
		<path fill-rule="evenodd" clip-rule="evenodd" fill="#F2F2F2" d="M80.8,70c1,1.1,2.2,3.5,2.2,5.7"/>
		<path fill="#0EAF81" d="M82.9,76C82.9,76,82.9,76,82.9,76c-0.6,0-1-0.1-1-0.6c0-2.1-1.1-4-1.9-4.9c-0.4-0.4-0.3-0.9,0.1-1.3
			c0.4-0.3,1-0.3,1.4,0.2c1.2,1.4,2.4,3.6,2.4,6C83.9,75.9,83.5,76,82.9,76z"/>
	</g>
	<g clip-path="url(#SVGID_2_)">
		<path fill-rule="evenodd" clip-rule="evenodd" fill="#F2F2F2" d="M57.3,70c-1,1.1-2.3,4.8-2.3,4.8"/>
		<path fill="#0EAF81" d="M55,75.8c-0.1,0-0.2,0-0.3-0.1c-0.5-0.2-0.8-0.7-0.6-1.3c0.1-0.4,1.4-3.9,2.5-5.1c0.4-0.4,1-0.5,1.4-0.1
			c0.4,0.4,0.5,1,0.1,1.4c-0.6,0.7-1.6,3.1-2.1,4.5C55.8,75.5,55.4,75.8,55,75.8z"/>
	</g>
</g>
<path fill="#0EAF81" d="M47,94C21.1,94,0,72.9,0,47C0,21.1,21.1,0,47,0c25.9,0,47,21.1,47,47C94,72.9,72.9,94,47,94z M47,2
	C22.2,2,2,22.2,2,47s20.2,45,45,45s45-20.2,45-45S71.8,2,47,2z"/>
</svg>
